<svg width="59" height="59" viewBox="0 0 59 59" fill="none" xmlns="http://www.w3.org/2000/svg">
<path d="M45.0269 13.9736H13.9746V45.0259H45.0269V13.9736Z" fill="white"/>
<path d="M45.0254 59.0001L58.9987 45.0269H45.0254V59.0001Z" fill="#EA4335"/>
<path d="M58.9987 13.9736H45.0254V45.0259H58.9987V13.9736Z" fill="#FBBC04"/>
<path d="M45.0269 45.0269H13.9746V59.0001H45.0269V45.0269Z" fill="#34A853"/>
<path d="M4.18032e-07 45.0269V54.343C-0.000258812 54.9548 0.120049 55.5607 0.354048 56.1259C0.588048 56.6912 0.93115 57.2048 1.36375 57.6374C1.79634 58.07 2.30995 58.4131 2.87521 58.6471C3.44047 58.8811 4.04631 59.0014 4.65809 59.0011H13.9743V45.0269H4.18032e-07Z" fill="#188038"/>
<path d="M58.9987 13.9735V4.65834C58.9989 4.04664 58.8787 3.44088 58.6447 2.87568C58.4108 2.31048 58.0678 1.79692 57.6353 1.36434C57.2028 0.931756 56.6893 0.588633 56.1242 0.354576C55.559 0.120518 54.9533 0.00011462 54.3416 0.000244245H45.0254V13.9735H58.9987Z" fill="#1967D2"/>
<path d="M45.0266 4.18033e-07H4.65809C4.04631 -0.000258812 3.44047 0.120049 2.87521 0.354049C2.30995 0.588048 1.79634 0.93115 1.36375 1.36375C0.93115 1.79634 0.588048 2.30995 0.354049 2.87521C0.120049 3.44047 -0.000258812 4.04631 4.18033e-07 4.65809V45.0266H13.9733V13.9733H45.0266V4.18033e-07Z" fill="#4285F4"/>
<path d="M20.3439 38.0625C19.1547 37.2415 18.3017 36.019 17.9414 34.6195L20.6349 33.509C20.8232 34.3491 21.2719 35.1085 21.917 35.6787C22.5342 36.1934 23.318 36.4652 24.1213 36.4431C24.9501 36.4607 25.7569 36.1748 26.3897 35.6393C26.6936 35.3934 26.9373 35.0812 27.102 34.7267C27.2668 34.3722 27.3484 33.9846 27.3404 33.5938C27.3485 33.1941 27.262 32.7982 27.0881 32.4383C26.9141 32.0783 26.6576 31.7646 26.3394 31.5226C25.6228 30.971 24.7361 30.6867 23.8323 30.7188H22.277V28.0559H23.6745C24.4592 28.0812 25.2285 27.8345 25.8522 27.3577C26.1418 27.1325 26.3734 26.8413 26.5278 26.5085C26.6822 26.1758 26.7549 25.8109 26.7398 25.4443C26.752 25.1149 26.687 24.7872 26.55 24.4873C26.413 24.1875 26.2078 23.9238 25.9508 23.7174C25.3793 23.2711 24.6683 23.0416 23.9438 23.0694C23.2572 23.0324 22.5823 23.2589 22.0571 23.7026C21.5917 24.1268 21.2418 24.6623 21.0402 25.2589L18.3773 24.1484C18.7644 23.0978 19.4415 22.1785 20.3301 21.4973C21.3692 20.701 22.6533 20.2915 23.9615 20.3395C24.9777 20.3226 25.9842 20.5392 26.9035 20.9726C27.7323 21.3606 28.4395 21.9672 28.949 22.7272C29.441 23.4743 29.698 24.3516 29.6867 25.2461C29.713 26.1031 29.4717 26.9469 28.9964 27.6605C28.565 28.2959 27.9855 28.8168 27.3079 29.1783V29.3371C28.1713 29.692 28.9215 30.2758 29.4777 31.0256C30.0513 31.8134 30.3487 32.7685 30.3239 33.7427C30.3398 34.7431 30.0601 35.726 29.5201 36.5683C28.9707 37.407 28.2051 38.0817 27.3039 38.5211C26.3154 39.0063 25.2263 39.2509 24.1252 39.2352C22.7746 39.2415 21.4548 38.8321 20.3449 38.0625H20.3439ZM36.8913 24.6948L33.9326 26.834L32.4532 24.5902L37.7592 20.7626H39.7929V38.8111H36.8913V24.6948Z" fill="#4285F4"/>
</svg>
