<svg width="23" height="23" viewBox="0 0 23 23" fill="none" xmlns="http://www.w3.org/2000/svg">
<path d="M18.207 7.66663C19.7948 7.66663 21.082 6.37944 21.082 4.79163C21.082 3.20381 19.7948 1.91663 18.207 1.91663C16.6192 1.91663 15.332 3.20381 15.332 4.79163C15.332 6.37944 16.6192 7.66663 18.207 7.66663Z" fill="white"/>
<path d="M18.9763 9.0275C18.9571 9.0275 18.938 9.03708 18.9188 9.03708C18.823 9.05625 18.7271 9.06583 18.6217 9.085C18.2192 9.12333 17.788 9.10417 17.3471 9.01792C17.2321 8.98917 17.1363 8.97 17.0309 8.93167C16.7146 8.855 16.4176 8.73042 16.1396 8.5675C16.0246 8.51 15.9096 8.43333 15.8042 8.36625C15.3442 8.05 14.9513 7.65708 14.6351 7.19708C14.568 7.09167 14.4913 6.97667 14.4338 6.86167C14.2709 6.58375 14.1463 6.28667 14.0696 5.97042C14.0313 5.865 14.0121 5.76917 13.9834 5.65417C13.8971 5.21333 13.878 4.78208 13.9163 4.37958C13.9355 4.27417 13.9451 4.17833 13.9642 4.0825C13.9642 4.06333 13.9738 4.04417 13.9738 4.025C14.0888 3.43083 13.648 2.875 13.0346 2.875H7.20797C7.0738 2.875 6.93964 2.88458 6.81505 2.89417C6.70005 2.90375 6.59464 2.91333 6.47964 2.9325C6.36464 2.94208 6.24964 2.96125 6.14422 2.98042C3.83464 3.31583 2.3588 4.78208 2.02339 7.10125C2.00422 7.20667 1.98505 7.32167 1.97547 7.43667C1.9563 7.55167 1.94672 7.65708 1.93714 7.77208C1.92755 7.89667 1.91797 8.03083 1.91797 8.165V15.7933C1.91797 15.9275 1.92755 16.0617 1.93714 16.1862C1.94672 16.3012 1.9563 16.4067 1.97547 16.5217C1.98505 16.6367 2.00422 16.7517 2.02339 16.8571C2.3588 19.1763 3.83464 20.6425 6.14422 20.9779C6.24964 20.9971 6.36464 21.0163 6.47964 21.0258C6.59464 21.045 6.70005 21.0546 6.81505 21.0642C6.93964 21.0737 7.0738 21.0833 7.20797 21.0833H14.8363C14.9705 21.0833 15.1046 21.0737 15.2292 21.0642C15.3442 21.0546 15.4496 21.045 15.5646 21.0258C15.6796 21.0163 15.7946 20.9971 15.9001 20.9779C18.2096 20.6425 19.6855 19.1763 20.0209 16.8571C20.0401 16.7517 20.0592 16.6367 20.0688 16.5217C20.088 16.4067 20.0976 16.3012 20.1071 16.1862C20.1167 16.0617 20.1263 15.9275 20.1263 15.7933V9.96667C20.1263 9.35333 19.5705 8.9125 18.9763 9.0275ZM6.47005 11.9792H11.2617C11.6546 11.9792 11.9805 12.305 11.9805 12.6979C11.9805 13.0908 11.6546 13.4167 11.2617 13.4167H6.47005C6.07714 13.4167 5.7513 13.0908 5.7513 12.6979C5.7513 12.305 6.07714 11.9792 6.47005 11.9792ZM15.0951 17.25H6.47005C6.07714 17.25 5.7513 16.9242 5.7513 16.5313C5.7513 16.1383 6.07714 15.8125 6.47005 15.8125H15.0951C15.488 15.8125 15.8138 16.1383 15.8138 16.5313C15.8138 16.9242 15.488 17.25 15.0951 17.25Z" fill="white"/>
</svg>
