<svg width="279" height="267" viewBox="0 0 279 267" fill="none" xmlns="http://www.w3.org/2000/svg">
<path d="M231.414 118.881C253.098 155.173 288.988 48.0972 189.828 8.11868C152.54 -6.92569 107.285 -0.250952 73.055 21.4507C65.926 25.9762 69.6303 37.7182 77.2486 41.1429C84.8669 44.5676 176.321 26.6402 231.414 118.881Z" fill="white"/>
<path d="M230.295 254.682C254.845 247.081 277.455 222.951 278.644 195.833C280.548 151.695 230.61 159.855 190.579 111.315C84.5171 -17.2522 -67.2196 103.452 32.5345 211.943C68.1797 250.716 150.164 279.476 230.295 254.682Z" fill="white"/>
<path d="M140.62 93.3527C135.622 95.5193 130.573 97.5287 125.47 99.3984C120.421 101.251 115.318 102.963 110.199 104.553C108.189 105.182 106.18 105.776 104.171 106.353L104.153 106.283C103.943 105.304 103.489 104.431 102.878 103.714C101.567 102.177 99.5053 101.373 97.391 101.775C89.301 103.26 81.2284 104.745 73.1383 106.23C69.2942 106.929 67.2149 111.14 68.9972 114.635C69.0147 114.652 69.0147 114.687 69.0322 114.705C64.1222 115.631 59.2297 116.487 54.3547 117.238C49.0778 118.06 43.8184 118.794 38.6289 119.423C40.848 127.181 43.0496 134.939 45.2687 142.697C50.3184 160.397 55.3507 178.08 60.4004 195.78C61.6235 200.061 62.8467 204.342 64.0698 208.623C66.3937 216.8 68.7351 224.978 71.059 233.155C74.1518 244.006 77.2445 254.857 80.3373 265.708C121.591 261.479 161.919 248.479 197.879 227.826C178.798 183.025 159.7 138.189 140.62 93.3527ZM97.3736 106.091C98.0201 107.104 98.6666 108.117 99.3131 109.113C91.1881 110.948 83.0631 112.783 74.9555 114.635C74.641 113.377 74.309 112.136 73.9945 110.878C81.4381 109.393 89.4058 107.733 97.3736 106.091Z" fill="white"/>
<path d="M52.8867 130.308L85.876 242.608L180.109 214.214L135.954 109.742L52.8867 130.308Z" fill="#EBF9FF"/>
<path opacity="0.1" d="M97.3938 101.792C89.3038 103.277 81.2312 104.763 73.1411 106.248C69.297 106.947 67.2177 111.158 69 114.652C69.0175 114.67 69.0175 114.705 69.0349 114.722C64.125 115.648 59.2325 116.505 54.3575 117.256C51.1075 125.661 48.0672 134.152 45.2715 142.714C50.3212 160.415 55.3535 178.097 60.4032 195.798C62.465 189.857 64.6317 183.933 66.9207 178.08C74.6089 158.265 83.5376 138.94 93.6022 120.226C96.5901 114.67 99.6828 109.166 102.88 103.732C101.57 102.194 99.5081 101.39 97.3938 101.792ZM74.9583 114.635C74.6438 113.377 74.3118 112.136 73.9973 110.878C81.4409 109.393 89.4086 107.733 97.3764 106.091C98.0229 107.104 98.6694 108.117 99.3159 109.113C91.1909 110.948 83.0833 112.8 74.9583 114.635Z" fill="#3F715C"/>
<path opacity="0.1" d="M125.469 99.3986C123.128 104.256 120.839 109.149 118.567 114.041C113.308 125.364 108.24 136.791 103.365 148.271C97.3547 162.389 91.6235 176.63 86.1719 190.993C83.2189 198.751 80.3533 206.544 77.5751 214.372C75.356 220.627 73.1719 226.883 71.0576 233.173C68.7337 224.995 66.3923 216.818 64.0684 208.641C66.1651 202.612 68.3318 196.602 70.6033 190.626C72.6826 185.122 74.8318 179.653 77.0684 174.218C80.895 164.835 84.9313 155.557 89.1772 146.349C93.5979 136.756 98.2458 127.268 103.121 117.885C105.445 113.429 107.804 108.974 110.215 104.571C115.335 102.963 120.419 101.251 125.469 99.3986Z" fill="#3F715C"/>
<path d="M80.3388 266.564C79.9369 266.564 79.57 266.267 79.5175 265.848C79.4476 265.393 79.7622 264.957 80.2165 264.904C97.6546 262.336 138.385 256.325 196.797 227.459C189.389 209.986 181.596 191.727 174.065 174.061C166.411 156.151 158.514 137.63 151.018 119.93C150.843 119.51 151.035 119.003 151.454 118.829C151.874 118.654 152.38 118.846 152.555 119.266C160.051 136.966 167.949 155.487 175.602 173.397C183.256 191.307 191.153 209.829 198.649 227.529C198.824 227.931 198.649 228.403 198.247 228.612C173.139 241.071 148.257 250.768 124.336 257.443C104.015 263.104 88.6909 265.358 80.4611 266.564C80.4261 266.564 80.3737 266.564 80.3388 266.564Z" fill="#355969"/>
<path d="M80.337 266.564C79.9701 266.564 79.6381 266.337 79.5333 265.97C72.4042 242.171 65.2577 217.36 58.3558 193.351C51.4714 169.361 44.3424 144.549 37.2134 120.751C37.1435 120.523 37.1784 120.279 37.3007 120.069C37.423 119.859 37.6327 119.72 37.8599 119.685L67.1099 114.443C67.5642 114.355 68.001 114.67 68.0884 115.124C68.1757 115.579 67.8612 116.015 67.4069 116.103L39.083 121.17C46.1247 144.689 53.1663 169.186 59.9808 192.88C66.8827 216.87 74.0118 241.7 81.1408 265.481C81.2806 265.917 81.0185 266.389 80.5817 266.529C80.4943 266.546 80.4244 266.564 80.337 266.564Z" fill="#355969"/>
<path d="M82.6761 228.403C82.3266 228.403 81.9947 228.175 81.8723 227.809L51.8011 132.51C51.6613 132.073 51.9059 131.602 52.3428 131.462C52.7796 131.322 53.2514 131.567 53.3911 132.003L83.4624 227.302C83.6022 227.739 83.3576 228.21 82.9207 228.35C82.8508 228.385 82.7635 228.403 82.6761 228.403Z" fill="#355969"/>
<path d="M195.052 255.905C223.838 255.905 247.174 232.569 247.174 203.783C247.174 174.996 223.838 151.66 195.052 151.66C166.266 151.66 142.93 174.996 142.93 203.783C142.93 232.569 166.266 255.905 195.052 255.905Z" fill="#065F46"/>
<path d="M180.478 223.964C177.752 223.964 175.166 222.392 173.978 219.753L164.176 197.72L177.158 191.936L184.06 207.47L222.606 190.328L228.39 203.311L183.344 223.353C182.418 223.772 181.439 223.964 180.478 223.964Z" fill="white"/>
<path d="M209.868 166.058C202.163 165.796 194.125 162.406 188.569 156.937C178.242 146.768 174.188 132.02 170.117 118.112C166.046 104.203 160.961 89.5433 149.481 80.6844C138.875 72.507 123.586 70.8995 111.512 76.718C99.4381 82.5366 94.668 95.7288 94.4583 109.113L76.426 113.08C76.0591 107.96 76.461 102.788 77.5094 97.7557C80.8293 82.0299 90.719 67.6844 104.785 60.3807C106.864 59.2973 109.013 58.3887 111.267 57.6199C133.651 50.1239 160.507 59.507 173.367 79.2866C181.946 92.5137 184.288 108.659 187.695 124.053C191.102 139.447 196.431 155.539 208.837 165.272C209.187 165.569 209.536 165.814 209.868 166.058Z" fill="#3F715C"/>
<path d="M250.179 160.816C242.753 174.236 222.379 175.004 209.868 166.058C216.508 166.285 222.886 164.171 227.219 159.051C246.073 136.861 251.332 103.976 240.376 76.9977C229.421 50.0192 202.792 25.6267 173.734 27.3565C135.38 29.663 115.269 44.4103 104.785 60.3633C90.7192 67.667 80.8294 81.995 77.5095 97.7383C76.0243 83.2531 86.4907 53.4264 101.221 36.0057C130.89 0.954612 193.653 5.13069 228.669 34.835C263.703 64.5743 272.405 120.646 250.179 160.816Z" fill="#5BAE8B"/>
<path d="M44.1895 89.7357C49.2042 86.0664 50.672 79.9857 50.5497 73.3634C52.4193 79.3043 58.0631 84.5287 63.8118 84.5113C57.5739 86.0664 55.9838 93.0906 57.9408 99.8003C55.6518 94.9427 53.2056 90.7666 44.1895 89.7357Z" fill="#F2A724"/>
<path d="M193.098 94.9951C206.692 92.9333 209.802 83.7774 212.493 73.3634C213.366 85.018 216.879 94.9078 227.223 97.7908C208.457 102.107 210.641 117.326 210.641 117.326C210.641 117.326 208.771 98.2277 193.098 94.9951Z" fill="#F2A724"/>
<path d="M18.209 211.978C28.5705 206.596 30.1257 205.076 28.3259 190.398C33.2534 201.773 39.002 204.884 50.2023 202.053C41.1512 209.427 38.2157 219.911 41.3784 230.709C37.7265 222.864 32.7816 213.62 18.209 211.978Z" fill="#F2A724"/>
<path d="M139.926 174.585C138.301 178.062 136.064 181.225 133.303 183.794C123.623 192.775 107.793 194.19 96.5923 187.183C95.6837 186.607 94.8101 185.995 93.9888 185.331C84.6232 177.818 80.5869 164.538 83.2778 152.709C88.3275 130.501 121.701 120.122 139.122 147.31C144.207 155.243 143.997 165.884 139.926 174.585Z" fill="url(#paint0_linear_62_6907)"/>
<path d="M139.925 174.585C138.3 178.063 136.064 181.225 133.303 183.794C123.623 192.775 107.792 194.19 96.5918 187.183C95.6832 186.607 94.8095 185.995 93.9883 185.331C96.8539 172.017 109.609 163.018 123.291 165.01C130.123 166.006 135.941 169.571 139.925 174.585Z" fill="white"/>
<path d="M122.452 150.441C122.71 144.309 117.947 139.13 111.815 138.873C105.683 138.616 100.504 143.378 100.247 149.51C99.9896 155.642 104.752 160.822 110.884 161.079C117.016 161.336 122.195 156.573 122.452 150.441Z" fill="white"/>
<path d="M112.738 204.621C112.371 204.621 112.039 204.394 111.934 204.027C111.794 203.591 112.057 203.119 112.493 202.979L132.797 196.916C133.234 196.776 133.706 197.038 133.846 197.475C133.985 197.912 133.723 198.384 133.286 198.523L112.983 204.587C112.913 204.621 112.825 204.621 112.738 204.621Z" fill="#355969"/>
<path d="M100.4 218.705C100.05 218.705 99.7182 218.478 99.6134 218.128C99.4736 217.691 99.7007 217.22 100.138 217.062L154.828 198.698C155.265 198.558 155.737 198.785 155.894 199.222C156.034 199.659 155.807 200.131 155.37 200.288L100.679 218.652C100.574 218.705 100.487 218.705 100.4 218.705Z" fill="#355969"/>
<defs>
<linearGradient id="paint0_linear_62_6907" x1="112.71" y1="131.026" x2="112.71" y2="191.619" gradientUnits="userSpaceOnUse">
<stop stop-color="#065F46"/>
<stop offset="1" stop-color="#0D7B5C"/>
</linearGradient>
</defs>
</svg>
