<svg width="119" height="124" viewBox="0 0 119 124" fill="none" xmlns="http://www.w3.org/2000/svg">
<path opacity="0.2" d="M76.2174 68.5188C76.5484 68.5188 76.9267 68.3764 77.1631 68.1389C78.1088 67.1893 100.097 44.6346 100.097 23.9792C100.097 10.7788 89.4102 0 76.2174 0C63.0718 0 52.3379 10.7313 52.3379 23.9792C52.3379 44.5871 74.3259 67.1893 75.2717 68.1389C75.5554 68.3764 75.8864 68.5188 76.2174 68.5188ZM64.1594 23.9792C64.1594 17.284 69.55 11.8234 76.2647 11.8234C82.932 11.8234 88.3699 17.2365 88.3699 23.9792C88.3699 30.6744 82.9793 36.135 76.2647 36.135C69.55 36.0875 64.1594 30.6744 64.1594 23.9792Z" fill="#065F46"/>
<path d="M117.639 104.036C113.667 89.6965 84.8222 82.6214 59.3822 76.3536C45.0545 72.8398 27.2749 68.4238 27.0858 64.5302C27.0385 63.6754 28.2206 60.4466 45.0072 54.796C46.3312 54.3687 47.0878 53.0391 46.8041 51.7096C46.5677 50.3326 45.3382 49.4304 44.0142 49.4779C19.5673 50.665 2.35514 57.6925 0.22726 67.3317C-0.813035 72.0326 1.22027 79.44 16.9193 87.7496L20.2766 89.5065C30.916 95.1096 38.5763 99.1457 38.6236 102.897C38.6709 107.408 28.0315 114.056 17.5813 119.943C16.9193 120.323 16.5883 121.131 16.7774 121.89C16.9666 122.65 17.6758 123.172 18.4324 123.172H108.796C109.269 123.172 109.695 122.982 109.978 122.65C116.646 116.002 119.199 109.735 117.639 104.036Z" fill="#065F46"/>
</svg>
