<svg width="285" height="243" viewBox="0 0 285 243" fill="none" xmlns="http://www.w3.org/2000/svg">
<path d="M239.524 117.654C239.524 117.654 147.085 92.4764 145.679 42.1962C144.939 15.8537 120.391 8.87955 98.0996 12.6903C68.1682 17.8145 40.7712 36.48 23.1787 60.8802C3.01483 88.8506 -8.49154 139.908 7.58407 172.706C37.6634 234.049 113.361 248.867 179.144 240.949C223.245 235.64 287.104 207.947 284.107 155.336C282.793 132.416 259.799 121.89 239.524 117.654Z" fill="white"/>
<path d="M176.163 225.447L135.817 205.727L125.864 200.843L84.6118 180.661L78.0446 85.2248L77.6191 78.9722L83.6498 81.9135L130.341 104.76L134.707 106.906L169.171 123.758L176.163 225.447Z" fill="#E57D00"/>
<path d="M253.748 66.8738L221.985 88.2402L205.466 99.358L169.171 123.758L134.707 106.906L77.6191 78.9722L88.7 71.5171L113.914 54.5535L130.434 43.4356L162.178 22.0693L253.748 66.8738Z" fill="#FFAA3B"/>
<path d="M169.172 123.758L176.164 225.447L260.742 168.563L253.749 66.8738L169.172 123.758Z" fill="#FFBE71"/>
<path d="M113.912 54.5534L205.464 99.3579L206.092 99.6539L208.793 139.001L224.739 128.272L225.313 127.883L222.612 88.536L221.983 88.2401L130.432 43.4355L113.912 54.5534Z" fill="#C98132"/>
<path opacity="0.1" d="M136.041 204.099C136.023 204.654 135.93 205.19 135.819 205.727L125.848 200.843L84.5955 180.661L78.0469 85.2247L82.3941 81.9133H120.853C126.089 81.9133 130.325 86.1496 130.325 91.3848V114.638L131.268 115.045C131.287 115.045 131.305 115.063 131.324 115.063C131.675 115.211 131.916 115.544 131.916 115.951L132.933 132.194C132.933 132.619 132.656 132.971 132.286 133.1C132.304 133.118 136.06 203.933 136.041 204.099Z" fill="black"/>
<path d="M64.5419 203.803H118.022C121.093 203.803 123.572 201.324 123.572 198.254V86.4088C123.572 83.338 121.093 80.8591 118.022 80.8591H64.5419C61.471 80.8591 58.9922 83.338 58.9922 86.4088V198.254C58.9922 201.324 61.471 203.803 64.5419 203.803Z" fill="#065F46"/>
<path d="M126.477 111.512C126.458 111.512 126.44 111.493 126.421 111.493V87.4817C126.421 82.2465 122.185 78.0103 116.95 78.0103H65.652C60.4168 78.0103 56.1806 82.2465 56.1806 87.4817V95.4918C55.7921 95.6213 55.4961 95.9728 55.4961 96.4167V100.117C55.4961 100.542 55.7921 100.912 56.1806 101.041V107.479C55.7921 107.609 55.4961 107.96 55.4961 108.404V116.581C55.4961 117.025 55.7921 117.376 56.1806 117.506V119.466C55.7921 119.596 55.4961 119.947 55.4961 120.391V128.568C55.4961 129.012 55.7921 129.363 56.1806 129.493V197.662C56.1806 199.271 56.5875 200.806 57.309 202.138C58.6409 204.617 61.0273 206.43 63.8761 206.967C64.4496 207.078 65.0601 207.133 65.6705 207.133H116.987C122.055 207.133 126.199 203.156 126.44 198.143C126.44 197.976 126.458 197.81 126.458 197.662V127.865C126.828 127.736 127.106 127.366 127.106 126.959V112.418C127.087 111.993 126.828 111.66 126.477 111.512ZM123.091 197.662C123.091 197.828 123.091 197.995 123.073 198.143C122.832 201.306 120.187 203.785 116.968 203.785H65.652C62.2667 203.785 59.5289 201.047 59.5289 197.662V87.4817C59.5289 84.0964 62.2667 81.3586 65.652 81.3586H116.968C120.353 81.3586 123.091 84.0964 123.091 87.4817V197.662Z" fill="#323744"/>
<path d="M96.155 85.0584H86.4246C86.0361 85.0584 85.7031 84.7439 85.7031 84.3369C85.7031 83.9485 86.0176 83.6155 86.4246 83.6155H96.155C96.5435 83.6155 96.8765 83.93 96.8765 84.3369C96.8765 84.7254 96.5435 85.0584 96.155 85.0584Z" fill="#323744"/>
<path opacity="0.1" d="M109.44 108.645V171.8C109.44 174.667 106.333 176.462 103.854 175L93.1242 168.729C92.5508 168.396 91.9033 168.23 91.2558 168.23H28.8218C26.7684 168.23 25.1035 166.565 25.1035 164.511V108.645C25.1035 106.591 26.7684 104.926 28.8218 104.926H105.722C107.775 104.945 109.44 106.591 109.44 108.645Z" fill="black"/>
<path d="M106.63 105.833V168.988C106.63 171.856 103.522 173.65 101.043 172.189L90.3137 165.917C89.7402 165.584 89.0928 165.418 88.4453 165.418H26.0113C23.9579 165.418 22.293 163.753 22.293 161.7V105.833C22.293 103.779 23.9579 102.115 26.0113 102.115H102.911C104.965 102.115 106.63 103.779 106.63 105.833Z" fill="white"/>
<path d="M64.2289 156.631C76.867 156.631 87.1122 146.386 87.1122 133.748C87.1122 121.11 76.867 110.865 64.2289 110.865C51.5909 110.865 41.3457 121.11 41.3457 133.748C41.3457 146.386 51.5909 156.631 64.2289 156.631Z" fill="#3F715C"/>
<path d="M61.5267 143.774C60.5832 143.774 59.6768 143.404 59.0108 142.738L51.7222 135.449C50.3348 134.062 50.3348 131.805 51.7222 130.418C53.1096 129.03 55.3665 129.03 56.7539 130.418L61.5452 135.209L71.9416 124.813C73.329 123.425 75.5859 123.425 76.9733 124.813C78.3607 126.2 78.3607 128.457 76.9733 129.844L64.061 142.757C63.3766 143.404 62.4701 143.774 61.5267 143.774Z" fill="white"/>
<path d="M63.0459 49.8177L59.4941 48.8927L63.0459 47.9678C64.5259 47.5793 65.6728 46.4324 66.0613 44.9524L66.9862 41.4006L67.9112 44.9524C68.2997 46.4324 69.4466 47.5793 70.9265 47.9678L74.4783 48.8927L70.9265 49.8177C69.4466 50.2061 68.2997 51.3531 67.9112 52.833L66.9862 56.3848L66.0613 52.833C65.6543 51.3531 64.5074 50.2061 63.0459 49.8177Z" fill="#FFFF00"/>
<path d="M197.623 19.3684L189.465 17.2225L197.623 15.0767C201.008 14.1887 203.654 11.5434 204.542 8.15805L206.687 0L208.833 8.15805C209.721 11.5434 212.367 14.1887 215.752 15.0767L223.91 17.2225L215.752 19.3684C212.367 20.2564 209.721 22.9017 208.833 26.287L206.687 34.4451L204.542 26.287C203.654 22.8832 201.008 20.2564 197.623 19.3684Z" fill="#FFFF00"/>
<path d="M200.047 178.46L194.035 176.887L200.047 175.315C202.545 174.667 204.487 172.706 205.135 170.227L206.707 164.215L208.279 170.227C208.927 172.725 210.888 174.667 213.367 175.315L219.379 176.887L213.367 178.46C210.869 179.107 208.927 181.068 208.279 183.547L206.707 189.559L205.135 183.547C204.487 181.068 202.545 179.126 200.047 178.46Z" fill="#FFFF00"/>
</svg>
