<svg width="298" height="266" viewBox="0 0 298 266" fill="none" xmlns="http://www.w3.org/2000/svg">
<path opacity="0.1" d="M168.386 53.7615H25.2422V211.92H168.386V53.7615Z" fill="#28805A"/>
<path d="M165.461 66.5997H28.1602V208.423H165.461V66.5997Z" fill="white"/>
<path fill-rule="evenodd" clip-rule="evenodd" d="M33.9018 57.4557C35.2643 57.4557 36.3739 58.5653 36.3739 59.9278C36.3739 61.2903 35.2643 62.3999 33.9018 62.3999C32.5393 62.3999 31.4297 61.2903 31.4297 59.9278C31.4297 58.5513 32.5393 57.4557 33.9018 57.4557Z" fill="white"/>
<path fill-rule="evenodd" clip-rule="evenodd" d="M40.9994 57.4557C42.3619 57.4557 43.4716 58.5653 43.4716 59.9278C43.4716 61.2903 42.3619 62.3999 40.9994 62.3999C39.637 62.3999 38.5273 61.2903 38.5273 59.9278C38.5273 58.5513 39.637 57.4557 40.9994 57.4557Z" fill="white"/>
<path fill-rule="evenodd" clip-rule="evenodd" d="M48.0971 57.4557C49.4596 57.4557 50.5692 58.5653 50.5692 59.9278C50.5692 61.2903 49.4596 62.3999 48.0971 62.3999C46.7346 62.3999 45.625 61.2903 45.625 59.9278C45.625 58.5513 46.7346 57.4557 48.0971 57.4557Z" fill="white"/>
<path d="M160.21 71.853H32.25V73.0189H160.21V71.853Z" fill="#D3DCD8"/>
<path d="M160.21 75.3645H32.25V76.5303H160.21V75.3645Z" fill="#D3DCD8"/>
<path d="M160.21 78.8619H32.25V80.0278H160.21V78.8619Z" fill="#D3DCD8"/>
<path d="M160.21 82.9493H32.25V84.1152H160.21V82.9493Z" fill="#D3DCD8"/>
<path d="M160.21 86.4469H32.25V87.6127H160.21V86.4469Z" fill="#D3DCD8"/>
<path d="M160.21 89.9442H32.25V91.11H160.21V89.9442Z" fill="#D3DCD8"/>
<path opacity="0.6" fill-rule="evenodd" clip-rule="evenodd" d="M36.1132 94.4811C37.9814 94.4811 39.4843 95.984 39.4843 97.8521C39.4843 99.7203 37.9673 101.223 36.1132 101.223C34.2451 101.223 32.7422 99.7203 32.7422 97.8521C32.7422 95.984 34.2451 94.4811 36.1132 94.4811Z" fill="#065F46"/>
<path d="M94.1764 95.7874H43.9336V96.9532H94.1764V95.7874Z" fill="#D3DCD8"/>
<path d="M77.2368 98.7091H43.9336V99.8749H77.2368V98.7091Z" fill="#D3DCD8"/>
<path opacity="0.2" fill-rule="evenodd" clip-rule="evenodd" d="M36.1132 108.654C37.9814 108.654 39.4843 110.157 39.4843 112.025C39.4843 113.893 37.9673 115.396 36.1132 115.396C34.2451 115.396 32.7422 113.893 32.7422 112.025C32.7422 110.157 34.2451 108.654 36.1132 108.654Z" fill="#065F46"/>
<path d="M94.1764 109.791H43.9336V110.957H94.1764V109.791Z" fill="#D3DCD8"/>
<path d="M77.2368 113.289H43.9336V114.454H77.2368V113.289Z" fill="#D3DCD8"/>
<path d="M105.882 141.887H39.8516V165.821H105.882V141.887Z" fill="#065F46"/>
<path d="M81.3261 145.398H42.1797V147.154H81.3261V145.398Z" fill="white"/>
<path d="M103.539 148.896H41.6094V150.651H103.539V148.896Z" fill="white"/>
<path d="M103.539 152.983H41.6094V154.739H103.539V152.983Z" fill="white"/>
<path d="M103.539 156.481H41.6094V158.236H103.539V156.481Z" fill="white"/>
<path d="M103.539 159.978H41.6094V161.734H103.539V159.978Z" fill="white"/>
<path opacity="0.1" fill-rule="evenodd" clip-rule="evenodd" d="M36.1132 122.812C37.9814 122.812 39.4843 124.315 39.4843 126.183C39.4843 128.051 37.9673 129.554 36.1132 129.554C34.2451 129.554 32.7422 128.051 32.7422 126.183C32.7422 124.329 34.2451 122.812 36.1132 122.812Z" fill="#065F46"/>
<path d="M94.1764 123.795H43.9336V124.961H94.1764V123.795Z" fill="#D3DCD8"/>
<path d="M77.2368 127.307H43.9336V128.473H77.2368V127.307Z" fill="#D3DCD8"/>
<path fill-rule="evenodd" clip-rule="evenodd" d="M48.1346 133.234C51.3792 133.08 54.1323 135.594 54.2868 138.839C54.4413 142.083 51.927 144.836 48.6824 144.977C45.4377 145.131 42.6847 142.617 42.5302 139.372C42.3757 136.142 44.8899 133.389 48.1346 133.234Z" fill="#1C1469"/>
<path fill-rule="evenodd" clip-rule="evenodd" d="M45.0456 142.687C46.7593 142.603 48.22 143.937 48.2903 145.651C48.3746 147.364 47.0402 148.811 45.3266 148.895C43.6129 148.98 42.1521 147.645 42.0819 145.932C41.9976 144.218 43.332 142.757 45.0456 142.687Z" fill="#1C1469"/>
<path d="M52.1782 142.136L47.8984 142.332L48.3478 152.141L52.6276 151.945L52.1782 142.136Z" fill="#FFCDBE"/>
<path fill-rule="evenodd" clip-rule="evenodd" d="M52.2762 144.218L52.3323 145.454C52.1919 145.581 52.0233 145.707 51.8407 145.791C50.5485 146.423 48.5399 145.173 47.9219 142.912C48.9191 144.499 50.5625 145.215 51.6441 144.668C51.8829 144.555 52.0936 144.401 52.2762 144.218Z" fill="#1C1469"/>
<path fill-rule="evenodd" clip-rule="evenodd" d="M51.7595 135.369C50.8605 138.291 49.175 139.541 47.0119 139.752C45.509 137.954 44.596 139.695 45.818 141.423C46.3377 142.154 46.9136 142.547 47.8687 142.617C48.7676 144.696 50.7341 145.721 51.9842 145.103C54.7232 143.741 53.2905 137.617 51.7595 135.369Z" fill="#FFCDBE"/>
<path fill-rule="evenodd" clip-rule="evenodd" d="M50.1719 148.909L49.2448 147.392C39.9323 146.002 31.7574 158.222 26.7009 159.037C23.695 159.514 21.0824 148.081 21.6443 143.712C22.0095 137.659 10.6743 135.889 17.4585 145.201C17.4585 145.201 11.6997 162.281 17.8237 168.321C23.9619 174.361 33.9065 170.554 41.3369 164.332C48.7673 158.096 50.1719 148.909 50.1719 148.909Z" fill="#FFCDBE"/>
<path fill-rule="evenodd" clip-rule="evenodd" d="M54.1484 259.171C54.3029 261.124 54.1625 262.472 55.3845 263.132C56.747 263.877 58.3482 263.652 60.0478 263.624C63.2784 263.568 66.509 262.879 66.5933 261.686C66.2421 259.607 60.4832 260.323 58.6853 257.865C57.1824 258.3 55.6654 258.736 54.1484 259.171Z" fill="#1C1469"/>
<path fill-rule="evenodd" clip-rule="evenodd" d="M63.3041 259.944C61.5624 259.55 59.61 259.115 58.6829 257.865L58.5705 255.66L54.0898 256.657L54.146 259.171C56.0563 260.969 61.3095 261.784 63.3041 259.944Z" fill="#FFCDBE"/>
<path fill-rule="evenodd" clip-rule="evenodd" d="M34.9448 259.171C34.7903 261.124 34.9308 262.472 33.7088 263.132C32.3463 263.877 30.745 263.652 29.0455 263.624C25.8149 263.568 22.5843 262.879 22.5 261.686C22.8512 259.607 28.61 260.323 30.4079 257.865C31.9109 258.3 33.4278 258.736 34.9448 259.171Z" fill="#1C1469"/>
<path fill-rule="evenodd" clip-rule="evenodd" d="M25.7891 259.944C27.5308 259.55 29.4832 259.115 30.4102 257.865L30.5226 255.66L35.0033 256.657L34.9471 259.171C33.0368 260.969 27.7836 261.784 25.7891 259.944Z" fill="#FFCDBE"/>
<path fill-rule="evenodd" clip-rule="evenodd" d="M51.0977 148.909L52.0247 147.392C61.3372 146.002 69.5121 158.222 74.5686 159.037C77.5745 159.514 80.1871 148.081 79.6252 143.712C79.26 137.659 90.5952 135.889 83.811 145.201C83.811 145.201 89.5699 162.281 83.4458 168.321C77.3076 174.361 67.363 170.554 59.9326 164.332C52.4882 158.096 51.0977 148.909 51.0977 148.909Z" fill="#FFCDBE"/>
<path fill-rule="evenodd" clip-rule="evenodd" d="M41.5942 174.572C37.0151 189.489 29.037 215.39 24.5703 257.542C29.6129 257.373 33.7424 257.205 38.7849 257.036C43.4201 241.136 46.0889 225.264 50.5134 209.42C51.0893 225.292 50.991 241.164 50.4291 257.036C55.4717 257.205 58.8287 257.373 63.8853 257.542C68.4502 224.562 69.1525 200.697 65.7534 174.572C57.691 174.572 41.8048 174.572 41.8048 174.572" fill="#001A0F"/>
<path fill-rule="evenodd" clip-rule="evenodd" d="M40.0567 174.572C40.0567 174.572 57.7828 174.572 66.5757 174.572C65.3958 144.218 36.9946 131.815 40.1831 174.572" fill="#065F46"/>
<g opacity="0.2">
<path d="M226.342 196.148H114.746V247.515H226.342V196.148ZM215.232 201.402V242.262H214.642V201.402H215.232ZM125.253 201.402V242.262H125.843V201.402H125.253ZM204.135 201.402V242.262H203.545V201.402H204.135ZM193.039 201.402V242.262H192.449V201.402H193.039ZM181.929 201.402V242.262H181.339V201.402H181.929ZM170.832 201.402V242.262H170.242V201.402H170.832ZM159.146 201.402V242.262H159.736V201.402H159.146ZM148.049 201.402V242.262H148.639V201.402H148.049ZM136.939 201.402V242.262H137.529V201.402H136.939ZM114.339 195.572H226.16H226.342V195.755V247.908V248.091H226.16H114.339H114.156V247.908V195.741V195.558H114.339V195.572Z" fill="#065F46"/>
<path d="M125.383 233.539C125.987 233.061 126.507 232.64 127.026 232.219C130.875 229.129 134.204 226.446 138.558 224.311C140.749 223.243 143.123 224.128 145.511 225.013C147.533 225.772 149.584 226.544 151.382 225.982C153.967 225.196 156.34 221.67 158.728 218.131C161.313 214.296 163.925 210.433 167.043 209.647C169.797 208.944 171.833 211.107 173.94 213.341C175.654 215.153 177.438 217.035 179.587 217.26C181.96 217.512 184.081 216.712 186.315 215.883C188.155 215.195 190.065 214.479 192.284 214.254C194.77 214.001 197.299 217.527 199.841 221.108C202.187 224.409 204.575 227.738 206.681 227.878C208.395 227.991 210.193 224.536 211.921 221.235C213.606 218.004 215.222 214.914 217.019 214.97L216.991 215.869C215.755 215.827 214.266 218.678 212.707 221.656C210.853 225.21 208.901 228.932 206.611 228.777C204.083 228.609 201.569 225.097 199.097 221.628C196.695 218.257 194.321 214.942 192.354 215.153C190.248 215.363 188.394 216.066 186.61 216.74C184.278 217.611 182.059 218.454 179.474 218.173C176.988 217.906 175.092 215.911 173.266 213.973C171.342 211.936 169.473 209.97 167.226 210.532C164.445 211.234 161.931 214.956 159.431 218.65C156.944 222.33 154.486 225.968 151.607 226.853C149.514 227.499 147.323 226.671 145.16 225.87C142.954 225.041 140.763 224.227 138.923 225.125C134.667 227.218 131.366 229.859 127.56 232.935C126.998 233.385 126.436 233.848 125.903 234.255L125.383 233.539Z" fill="#065F46"/>
<path d="M125.383 222.218C125.987 221.74 126.521 221.319 127.04 220.898C130.889 217.807 134.218 215.125 138.572 212.99C140.819 211.894 143.053 213.945 145.314 216.038C147.281 217.85 149.275 219.69 151.017 219.156C153.601 218.355 155.835 215.026 158.096 211.669C160.54 208.031 162.998 204.365 166.116 203.579C168.869 202.876 171.679 207.849 174.516 212.863C177.03 217.302 179.559 221.796 181.736 222.021C183.632 222.218 185.528 217.934 187.495 213.509C189.587 208.804 191.722 203.972 194.447 203.691C196.948 203.438 198.914 206.753 200.909 210.152C202.749 213.271 204.617 216.445 206.71 216.571C208.423 216.684 210.221 213.228 211.949 209.928C213.634 206.697 215.25 203.607 217.048 203.663L217.019 204.562C215.783 204.52 214.294 207.371 212.735 210.349C210.881 213.903 208.929 217.625 206.639 217.47C204.069 217.302 202.074 213.917 200.122 210.602C198.268 207.455 196.456 204.379 194.518 204.576C192.326 204.801 190.276 209.394 188.295 213.86C186.202 218.58 184.166 223.173 181.623 222.906C178.997 222.625 176.356 217.934 173.729 213.299C171.061 208.579 168.42 203.916 166.327 204.436C163.546 205.138 161.172 208.663 158.827 212.161C156.481 215.658 154.149 219.114 151.27 220.013C149.022 220.701 146.845 218.692 144.696 216.698C142.659 214.816 140.651 212.962 138.951 213.79C134.695 215.883 131.409 218.524 127.588 221.6C127.026 222.049 126.464 222.513 125.931 222.934L125.383 222.218Z" fill="#065F46"/>
</g>
<path fill-rule="evenodd" clip-rule="evenodd" d="M265.766 82.6261L270.626 84.2274L275.612 81.067L275.584 86.1798L280.121 89.9441L275.261 91.4892L273.07 96.9672L270.092 92.8236L264.207 92.4443L267.227 88.3288L265.766 82.6261Z" fill="#F2A724"/>
<path fill-rule="evenodd" clip-rule="evenodd" d="M182.679 28.3241C184.618 28.3241 186.191 29.8973 186.191 31.8216C186.191 33.7599 184.618 35.319 182.679 35.319C180.741 35.319 179.168 33.7459 179.168 31.8216C179.168 29.8973 180.741 28.3241 182.679 28.3241Z" fill="#FFA811"/>
<path fill-rule="evenodd" clip-rule="evenodd" d="M61.7969 35.953L66.6568 34.4079L68.862 28.944L71.8258 33.0876L77.7111 33.4809L74.6771 37.5964L76.1239 43.3131L71.278 41.6978L66.2776 44.8301L66.3197 39.7314L61.7969 35.953Z" fill="#F2A724"/>
<path fill-rule="evenodd" clip-rule="evenodd" d="M114.027 36.4989C115.389 36.4989 116.499 37.6085 116.499 38.971C116.499 40.3335 115.389 41.4431 114.027 41.4431C112.664 41.4431 111.555 40.3335 111.555 38.971C111.555 37.6085 112.664 36.4989 114.027 36.4989Z" fill="#FFA811"/>
<path fill-rule="evenodd" clip-rule="evenodd" d="M37.523 38.9495C38.8855 38.9495 39.9951 40.0591 39.9951 41.4216C39.9951 42.784 38.8855 43.8937 37.523 43.8937C36.1605 43.8937 35.0509 42.784 35.0509 41.4216C35.0369 40.0451 36.1465 38.9495 37.523 38.9495Z" fill="#FFA811"/>
<path fill-rule="evenodd" clip-rule="evenodd" d="M258.05 113.542C259.413 113.542 260.522 114.652 260.522 116.014C260.522 117.376 259.413 118.486 258.05 118.486C256.688 118.486 255.578 117.376 255.578 116.014C255.578 114.652 256.688 113.542 258.05 113.542Z" fill="#FFA811"/>
<path fill-rule="evenodd" clip-rule="evenodd" d="M2.47211 76.2979C3.83458 76.2979 4.94422 77.4075 4.94422 78.77C4.94422 80.1324 3.83458 81.2421 2.47211 81.2421C1.10964 81.2421 0 80.1324 0 78.77C0 77.4075 1.10964 76.2979 2.47211 76.2979Z" fill="#FFA811"/>
<path fill-rule="evenodd" clip-rule="evenodd" d="M273.25 49.337C274.612 49.337 275.722 50.4467 275.722 51.8091C275.722 53.1716 274.612 54.2813 273.25 54.2813C271.887 54.2813 270.777 53.1716 270.777 51.8091C270.763 50.4467 271.873 49.337 273.25 49.337Z" fill="#FFA811"/>
<path opacity="0.1" d="M240.292 59.9626H172.52V152.765H240.292V59.9626Z" fill="#28805A"/>
<path d="M236.195 68.7134H176.598V149.254H236.195V68.7134Z" fill="white"/>
<path opacity="0.2" fill-rule="evenodd" clip-rule="evenodd" d="M184.75 116.568H190.031L190.059 141.668H184.778L184.75 116.568Z" fill="#3F715C"/>
<path opacity="0.5" fill-rule="evenodd" clip-rule="evenodd" d="M194.129 105.486C194.129 105.486 197.556 105.486 199.424 105.486C199.438 117.551 199.452 129.603 199.466 141.669C197.612 141.669 195.744 141.669 193.89 141.669C193.876 129.603 193.862 117.551 193.848 105.486" fill="#065F46"/>
<path opacity="0.2" fill-rule="evenodd" clip-rule="evenodd" d="M203.469 94.9792C203.469 94.9792 206.98 94.9792 208.848 94.9792C208.862 110.542 208.876 126.105 208.904 141.668C207.036 141.668 205.168 141.668 203.314 141.668C203.3 126.105 203.286 110.542 203.258 94.9792" fill="#3F715C"/>
<path opacity="0.5" fill-rule="evenodd" clip-rule="evenodd" d="M212.833 87.9703C212.833 87.9703 216.429 87.9703 218.283 87.9703C218.297 105.865 218.325 123.76 218.34 141.668C216.485 141.668 214.617 141.668 212.763 141.668C212.749 123.774 212.721 105.879 212.707 87.9703" fill="#065F46"/>
<path opacity="0.2" fill-rule="evenodd" clip-rule="evenodd" d="M222.117 81.5516H227.441L227.497 141.669H222.173L222.117 81.5516Z" fill="#3F715C"/>
<path fill-rule="evenodd" clip-rule="evenodd" d="M212.857 13.8494C212.857 13.8494 223.49 13.8494 228.771 13.8494C231.398 13.8494 233.533 15.9844 233.533 18.611C233.533 20.142 232.128 22.0523 232.128 23.5973C232.128 28.4994 231.889 32.1093 231.187 36.9973C230.906 38.9357 232.55 41.4499 232.55 43.5287C232.55 46.661 230.864 49.1191 227.015 48.0235C222.661 48.0516 218.56 48.0937 214.205 48.1218C211.045 48.9505 208.18 46.5627 208.18 43.5287C208.18 35.2275 208.18 26.9122 208.18 18.611C208.18 15.9984 210.329 13.8494 212.941 13.8494" fill="#FFC64A"/>
<path fill-rule="evenodd" clip-rule="evenodd" d="M207.084 59.3867C203.629 59.471 200.173 59.5413 196.718 59.6255C205.061 72.5339 210.75 85.3018 213.377 97.9011C205.82 91.1028 198.488 83.9674 192.139 75.3712C186.787 68.1234 177.447 57.4765 185.341 49.9478C189.934 45.5654 198.235 42.3629 206.494 39.1604C206.564 41.5061 218.503 41.8151 218.574 44.1468C218.7 48.5432 206.958 54.9763 207.084 59.3867Z" fill="#001A0F"/>
<path fill-rule="evenodd" clip-rule="evenodd" d="M206.655 77.7029C209.703 84.4731 211.965 91.2012 213.355 97.8871C208.214 93.2659 203.172 88.4903 198.48 83.1949L206.655 77.7029Z" fill="#FFCDBE"/>
<path fill-rule="evenodd" clip-rule="evenodd" d="M209.858 85.5968C211.332 89.7123 212.512 93.8138 213.355 97.8871C210.279 95.12 207.231 92.2968 204.281 89.3331C206.95 89.3611 209.38 88.996 209.858 85.5968Z" fill="#050D24"/>
<path fill-rule="evenodd" clip-rule="evenodd" d="M232.238 44.4697C233.432 48.1076 238.488 62.266 212.138 59.6535C210.157 73.3062 203.359 92.3808 193.035 97.0582C193.274 82.8576 196.757 69.7385 200.409 59.6675C202.615 53.5856 202.797 50.4814 208.739 47.5177C211.211 46.2816 214.722 44.9332 218.557 44.4697C223.333 43.8938 229.414 44.3713 232.238 44.4697Z" fill="#001A0F"/>
<path fill-rule="evenodd" clip-rule="evenodd" d="M207.755 76.7899C204.37 85.9198 199.37 94.193 193.035 97.0584C193.176 88.9959 194.355 81.2706 196.013 74.2756L207.755 76.7899Z" fill="#FFCDBE"/>
<path fill-rule="evenodd" clip-rule="evenodd" d="M201.814 88.8133C199.272 92.6057 196.336 95.5694 193.035 97.0583C193.091 93.6591 193.33 90.3162 193.723 87.0715C195.1 89.7965 197.572 90.7376 201.814 88.8133Z" fill="#050D24"/>
<path d="M214.521 39.6934C212.611 38.2045 210.363 36.224 208.734 34.2295C205.911 30.7882 207.582 26.2092 209.478 22.4589C210.391 20.6329 211.136 19.7199 211.684 19.7339L211.754 13.9189C208.776 13.8767 206.276 15.8572 204.281 19.8463C197.525 33.2603 200.306 35.9572 210.939 44.2865L214.521 39.6934Z" fill="#FFC74E"/>
<path fill-rule="evenodd" clip-rule="evenodd" d="M227.714 43.4726C225.607 43.5428 222.517 43.6131 220.41 43.6693C220.677 42.068 224.132 41.0988 226.661 41.141C227.223 42.0118 227.138 42.5877 227.714 43.4726Z" fill="#FFCDBE"/>
<path d="M226.452 38.6963C229.753 36.0696 231.143 34.4543 231.509 32.6003C232.183 29.2573 229.388 25.7739 226.789 20.8999C225.876 19.0739 226.031 19.7341 225.469 19.7481L229.219 13.933C232.197 13.8909 234.697 15.8714 236.692 19.8605C243.448 33.2745 240.147 41.4774 227.323 44.5675L226.452 38.6963Z" fill="#FFC74E"/>
<path fill-rule="evenodd" clip-rule="evenodd" d="M196.289 26.6875H221.024L222.682 44.203H197.947L196.289 26.6875Z" fill="#050D24"/>
<path d="M235.059 43.6132H222.207V44.779H235.059V43.6132Z" fill="#050D24"/>
<path fill-rule="evenodd" clip-rule="evenodd" d="M220.722 10.7874C219.43 11.0262 220.427 9.36876 220.806 7.54277C222.745 6.70001 221.368 5.18303 220.582 5.77297C220.525 5.57632 220.357 5.42181 220.132 5.26731C220.104 5.2954 220.09 5.33754 220.062 5.36563C219.851 5.6606 219.612 5.91343 219.36 6.13817C218.376 5.60441 217.674 5.75892 216.93 4.49477C217.126 5.49205 216.382 5.68869 216.003 6.29267C214.668 5.39372 214.935 3.80652 215.848 2.55642C217.73 -0.0280619 221.157 -0.365167 223.391 1.23609C225.484 2.72497 227.534 9.15807 223.405 10.5486C222.379 10.8998 222.562 11.2509 220.722 10.7874Z" fill="#050D24"/>
<path fill-rule="evenodd" clip-rule="evenodd" d="M221.323 3.80625C220.2 3.91861 218.795 4.26977 217.882 3.427C217.461 4.38214 216.225 4.26977 215.368 4.34C215.115 8.53977 216.196 11.4473 218.893 10.9417L219.132 12.2339L218.949 14.9167C220.129 16.2932 222.25 16.2089 223.964 14.6639C223.585 12.0513 223.121 6.01148 221.323 3.80625Z" fill="#FFCDBE"/>
<path fill-rule="evenodd" clip-rule="evenodd" d="M219.083 11.9953C220.165 11.7003 221.963 9.46697 222.23 8.52588C221.836 9.172 220.235 10.4642 218.915 10.9137L218.887 10.9418L219.083 11.9953Z" fill="#050D24"/>
<path fill-rule="evenodd" clip-rule="evenodd" d="M223.956 8.14668C223.029 9.46701 223.534 11.4335 225.094 12.5291C226.653 13.6246 228.675 13.442 229.616 12.1217C230.543 10.8014 230.038 8.83493 228.479 7.73934C226.92 6.6297 224.897 6.8123 223.956 8.14668Z" fill="#050D24"/>
<path fill-rule="evenodd" clip-rule="evenodd" d="M220.16 26.6875H221.087L222.745 44.203H221.832L220.16 26.6875Z" fill="#050D24"/>
<path fill-rule="evenodd" clip-rule="evenodd" d="M256.285 165.105C246.452 175.667 232.8 174.979 216.422 168.771C216.59 167.127 216.619 166.58 216.787 164.936C228.712 168.673 240.047 166.959 250.722 159.36C252.576 161.27 254.431 163.181 256.285 165.105Z" fill="#FFCDBE"/>
<path fill-rule="evenodd" clip-rule="evenodd" d="M216.423 168.757C204.948 168.279 208.333 159.163 216.788 164.922C216.676 166.158 216.536 167.521 216.423 168.757Z" fill="#FFC278"/>
<path fill-rule="evenodd" clip-rule="evenodd" d="M150.777 119.286C157.435 110.943 169.599 109.567 177.956 116.224C186.313 122.882 187.69 135.032 181.032 143.375C174.374 151.719 162.21 153.095 153.853 146.438C145.496 139.794 144.119 127.644 150.777 119.286ZM146.507 115.887C155.047 105.184 170.652 103.428 181.355 111.954C191.089 119.708 193.435 133.304 187.353 143.755L223.957 172.9C225.53 174.15 225.783 176.454 224.533 178.027C223.283 179.6 220.965 179.853 219.392 178.603L182.788 149.457C173.953 157.702 160.16 158.461 150.426 150.708C139.723 142.182 137.967 126.59 146.507 115.887Z" fill="#3F715C"/>
<path fill-rule="evenodd" clip-rule="evenodd" d="M197.417 157.534C196.981 156.551 195.703 155.23 194.593 154.36C191.84 152.225 189.804 154.641 192.908 157.141C193.919 157.955 195.296 158.826 196.672 158.967L197.417 157.534Z" fill="#E8B28C"/>
<path fill-rule="evenodd" clip-rule="evenodd" d="M186.383 154.57L193.125 146.115L228.774 174.502C231.106 176.356 231.485 179.769 229.631 182.087C227.777 184.404 224.363 184.798 222.032 182.943L186.383 154.57Z" fill="#0C0C0C"/>
<path fill-rule="evenodd" clip-rule="evenodd" d="M159.39 109.721C166.244 107.656 173.955 108.892 179.981 113.682C185.951 118.43 188.872 125.593 188.451 132.658C188.437 132.799 188.437 132.939 188.423 133.08C188.381 133.346 188.24 133.417 188.072 133.417C187.861 133.417 187.721 133.08 187.763 132.56C187.777 132.335 187.791 132.124 187.791 131.9C187.959 125.27 185.136 118.654 179.546 114.202C173.773 109.609 166.385 108.387 159.797 110.297C159.516 110.367 159.291 110.423 159.165 110.128C159.067 109.89 159.179 109.791 159.39 109.721Z" fill="white"/>
<path fill-rule="evenodd" clip-rule="evenodd" d="M272.801 220.91C276.312 227.989 281.692 238.51 285.203 245.589C287.282 249.775 289.572 252.387 287.015 256.025C286.159 257.247 284.866 258.385 283.532 259.242C283.63 260.014 283.953 260.689 284.052 261.461C286.355 261.166 288.659 260.871 290.948 260.576C292.465 259.635 293.968 258.694 295.485 257.753C295.878 256.573 296.272 255.393 296.651 254.213C290.85 239.858 285.063 225.517 279.262 211.162C278.124 216.359 273.924 215.713 272.801 220.91Z" fill="#FFCDBE"/>
<path fill-rule="evenodd" clip-rule="evenodd" d="M288.15 252.556C290.454 251.797 292.758 251.025 295.061 250.266C298.278 238.496 282.462 209.448 279.119 194.686C277.644 188.168 274.484 183.028 272.208 182.016C269.989 182.41 262.741 180.12 260.522 180.513C260.494 180.345 260.452 180.19 260.424 180.022C258.443 180.57 256.477 181.131 254.496 181.679C264.525 205.726 273.992 231.725 288.15 252.556Z" fill="#001A0F"/>
<path fill-rule="evenodd" clip-rule="evenodd" d="M296.653 254.213C293.212 258.118 284.785 260.871 283.563 259.213C283.492 259.27 274.629 265.928 279.222 264.635C284.981 263.02 290.74 261.405 296.513 259.789C297.384 259.551 297.904 258.624 297.651 257.753C297.314 256.573 296.977 255.393 296.653 254.213Z" fill="#1A2E36"/>
<path fill-rule="evenodd" clip-rule="evenodd" d="M259.963 143.741C262.168 144.907 266.775 144.794 267.913 147.126C270.034 151.452 267.21 152.309 265.693 155.441C264.963 156.958 268.306 159.037 267.885 161.214C267.365 163.841 265.258 163.293 264.078 163.237C264.64 155.722 260.005 152.084 256.086 148.924L259.05 146.943C259.106 146.831 259.148 146.733 259.19 146.606L259.878 144.345C259.935 144.148 259.963 143.952 259.963 143.755V143.741Z" fill="#1A2E36"/>
<path fill-rule="evenodd" clip-rule="evenodd" d="M250.571 255.407C253.043 255.337 255.53 255.253 258.002 255.183C262.496 245.126 263.985 212.37 266.668 197.257C267.848 190.585 266.949 184.77 265.221 183.196C263.016 182.972 257.173 178.814 254.968 178.589C254.996 178.421 255.038 178.252 255.066 178.084C253.015 178.084 250.965 178.084 248.914 178.084C249.462 203.858 245.36 246.024 250.571 255.407Z" fill="#001A0F"/>
<path fill-rule="evenodd" clip-rule="evenodd" d="M250.68 255.505C250.259 256.601 249.486 257.626 248.124 258.595C246.803 259.537 245.385 260.281 243.784 260.73C243.531 261.489 243.292 262.262 243.039 263.02C245.272 263.357 247.52 263.694 249.753 264.031C251.551 263.54 253.335 263.034 255.133 262.542C256.004 261.517 256.874 260.492 257.745 259.452L257.998 255.337L250.68 255.505Z" fill="#FFCDBE"/>
<path fill-rule="evenodd" clip-rule="evenodd" d="M255.863 143.235C251.987 133.15 256.06 130.846 260.962 132.167C272.648 135.299 259.319 152.211 255.863 143.235Z" fill="#1A2E36"/>
<path fill-rule="evenodd" clip-rule="evenodd" d="M259.81 149.064C274.221 153.784 274.376 170.765 275.317 184.081C269.741 184.109 254.388 184.994 248.812 185.022C245.989 174.235 244.331 154.598 253.812 150.722C255.821 150.174 257.815 149.612 259.81 149.064Z" fill="#065F46"/>
<path fill-rule="evenodd" clip-rule="evenodd" d="M260.342 141.198C260.581 138.024 256.845 137.603 256.381 134.639C255.019 136.493 253.488 137.912 252.505 139.077C252.153 139.709 253.389 139.709 253.235 140.145C252.21 142.912 251.929 144.485 254.794 144.892C254.218 146.437 253.825 147.238 253.277 148.544L252.617 153.011C254.359 152.604 257.828 151.171 259.359 149.809C260.637 147.308 260.146 143.684 260.342 141.198Z" fill="#FFCDBE"/>
<path fill-rule="evenodd" clip-rule="evenodd" d="M254.293 146.143C255.726 146.381 257.229 146.269 258.142 145.511C257.271 145.553 255.796 145.314 254.827 144.85L254.785 144.878C254.63 145.272 254.462 145.707 254.293 146.143Z" fill="#1A2E36"/>
<path fill-rule="evenodd" clip-rule="evenodd" d="M257.66 259.719C253.277 262.556 244.442 262.922 243.698 260.997C243.613 261.04 233.29 265.043 238.051 265.043H256.002C256.915 265.043 257.66 264.298 257.66 263.399V259.789" fill="#1A2E36"/>
<path d="M265.18 154.936C265.11 154.865 264.997 154.865 264.927 154.922C264.857 154.992 264.857 155.104 264.913 155.174C265.798 156.115 266.528 157.085 267.09 158.054C268.818 161.018 269.085 164.108 268.214 167.128C267.343 170.162 265.32 173.111 262.469 175.808C260.517 177.648 258.185 179.362 255.558 180.879C255.474 180.935 255.446 181.033 255.488 181.131C255.544 181.216 255.643 181.244 255.741 181.202C258.396 179.671 260.755 177.943 262.722 176.075C265.629 173.336 267.68 170.33 268.565 167.226C269.464 164.122 269.183 160.933 267.399 157.871C266.823 156.888 266.093 155.905 265.18 154.936Z" fill="#1A2E36"/>
<path fill-rule="evenodd" clip-rule="evenodd" d="M260.89 175.527C251.058 186.09 237.405 185.401 221.027 179.193C221.196 177.55 221.224 177.002 221.393 175.359C233.318 179.095 244.653 177.381 255.328 169.782C257.182 171.692 259.036 173.617 260.89 175.527Z" fill="#FFCDBE"/>
<path fill-rule="evenodd" clip-rule="evenodd" d="M221.025 179.193C209.549 178.716 212.934 169.6 221.39 175.359C221.292 176.595 221.137 177.957 221.025 179.193Z" fill="#FFCDBE"/>
</svg>
