<svg width="336" height="343" viewBox="0 0 336 343" fill="none" xmlns="http://www.w3.org/2000/svg">
<path opacity="0.3" d="M333.285 168.691C324.321 199.822 294.457 219.25 266.109 235.904C227.872 258.365 181.716 279.798 136.151 287.457C96.2984 294.156 34.9933 295.68 10.2112 260.609C9.7384 259.941 9.28531 259.256 8.83222 258.57C-6.37587 234.876 1.56307 210.598 14.8997 188.171C23.0553 174.465 34.0477 161.512 36.7071 146.161C38.8544 133.774 35.2691 121.164 30.5215 109.36C26.8573 100.245 22.4052 91.1986 21.4006 81.5527C20.7308 75.1107 21.6173 68.6002 23.0947 62.261C38.2437 -3.2383 124.095 -15.0772 179.687 17.4583C198.5 28.4748 216.131 41.0161 233.979 53.2319C251.374 65.1394 269.812 75.5905 287.365 87.2751C316.56 106.738 343.39 133.637 333.285 168.691Z" fill="white"/>
<path d="M94.3691 309.273C93.068 310.996 91.1924 313.7 94.0143 315.22C95.6365 316.099 97.7318 315.474 99.1005 314.257C101.415 312.179 104.44 307.312 105.724 304.474C107.076 301.5 105.099 297.833 101.787 299.675C98.9653 301.229 96.3293 306.687 94.3691 309.273Z" fill="#FFCDBE"/>
<path d="M100.436 312.855C101.501 318.837 103.529 322.841 105.691 328.637C106.08 329.668 106.08 330.817 105.573 331.797C102.481 337.931 89.2501 319.631 87.3576 316.741C86.952 316.116 86.5127 315.389 86.6817 314.663C86.8169 314.021 87.3745 313.565 87.8814 313.159C90.0781 311.435 92.393 309.34 94.9277 308.225C94.9615 308.208 94.9953 308.259 94.9784 308.293C94.2687 309.34 93.9814 310.726 94.4714 311.892C94.9784 313.074 95.9922 313.7 97.2426 313.835C98.3748 313.97 99.6759 313.717 100.436 312.855Z" fill="white"/>
<path d="M100.606 313.615C100.657 313.869 100.724 314.173 100.826 314.528C100.91 314.883 101.012 315.305 101.147 315.761C101.4 316.674 101.721 317.789 102.178 319.022C102.617 320.273 103.174 321.658 103.783 323.162C104.391 324.666 105.084 326.305 105.76 328.046C105.81 328.147 105.844 328.265 105.895 328.367L105.963 328.536L106.03 328.705C106.115 328.941 106.165 329.195 106.216 329.448C106.301 329.955 106.301 330.479 106.182 330.986C106.132 331.239 106.047 331.493 105.946 331.746L105.912 331.831L105.895 331.881L105.878 331.898L105.861 331.932L105.777 332.101L105.726 332.186C105.709 332.219 105.692 332.236 105.658 332.27L105.54 332.456C105.354 332.676 105.151 332.878 104.898 333.03C104.645 333.183 104.357 333.267 104.07 333.318C103.496 333.385 102.921 333.267 102.414 333.081C101.907 332.895 101.417 332.642 100.961 332.355C100.048 331.797 99.2036 331.104 98.3925 330.394C96.7703 328.958 95.2833 327.353 93.847 325.697C92.4277 324.041 91.059 322.334 89.7747 320.611C89.1326 319.749 88.5074 318.887 87.8991 318.025C87.595 317.586 87.3077 317.164 87.0204 316.707C86.7501 316.251 86.4628 315.761 86.3952 315.17C86.3614 314.866 86.3952 314.561 86.5135 314.274C86.6318 314.004 86.8008 313.767 86.9866 313.565C87.1725 313.362 87.3753 313.193 87.5781 313.041C87.7808 312.889 87.9667 312.737 88.1695 312.584C88.9299 311.976 89.6903 311.385 90.4337 310.81C91.1772 310.236 91.9207 309.695 92.6642 309.222C93.036 308.985 93.4077 308.766 93.7964 308.563C93.9822 308.461 94.185 308.36 94.3709 308.276C94.4723 308.225 94.5567 308.191 94.6581 308.14L94.7933 308.073L94.8609 308.039H94.8778L94.9116 308.022C94.9961 307.988 95.0806 308.022 95.1313 308.073C95.182 308.124 95.2157 308.191 95.2157 308.259C95.2157 308.293 95.1988 308.326 95.1819 308.36C95.1651 308.394 95.1651 308.377 95.1651 308.394L95.1313 308.461L95.0468 308.58C94.9961 308.664 94.9454 308.732 94.9116 308.833C94.8271 309.002 94.7426 309.171 94.675 309.357C94.5398 309.712 94.4723 310.067 94.4385 310.422C94.4047 310.776 94.4385 311.131 94.5229 311.452C94.5567 311.621 94.6074 311.773 94.675 311.925C94.7088 312.01 94.7426 312.078 94.7764 312.145C94.8102 312.213 94.844 312.28 94.8947 312.348C95.2326 312.889 95.7227 313.277 96.2465 313.48C96.7534 313.7 97.2772 313.784 97.7504 313.801C98.2235 313.818 98.6459 313.767 99.0008 313.683C99.3556 313.598 99.6429 313.463 99.8626 313.345C100.082 313.227 100.234 313.091 100.336 313.007C100.403 312.906 100.437 312.855 100.437 312.855C100.437 312.855 100.386 312.906 100.302 313.007C100.201 313.091 100.065 313.227 99.8457 313.362C99.626 313.497 99.3387 313.649 98.9839 313.75C98.629 313.852 98.1897 313.936 97.7166 313.919C97.2434 313.919 96.7027 313.852 96.1451 313.649C95.6044 313.446 95.0468 313.058 94.6581 312.483C94.6074 312.416 94.5567 312.331 94.5229 312.263C94.4723 312.179 94.4385 312.111 94.4047 312.027C94.3202 311.858 94.2695 311.689 94.2188 311.52C94.1174 311.165 94.0836 310.776 94.1005 310.405C94.1174 310.016 94.185 309.627 94.3202 309.239C94.3878 309.053 94.4723 308.85 94.5567 308.664C94.6074 308.563 94.6581 308.478 94.7088 308.377L94.7933 308.242L94.8271 308.174C94.8102 308.191 94.8102 308.208 94.8102 308.242C94.8102 308.293 94.8271 308.343 94.8609 308.36C94.8947 308.394 94.9454 308.411 95.013 308.394C94.9961 308.394 95.0299 308.394 95.013 308.394H94.9961L94.9285 308.428L94.7933 308.495C94.7088 308.546 94.6074 308.58 94.5229 308.63C94.3371 308.732 94.1512 308.816 93.9822 308.935C93.6105 309.137 93.2556 309.374 92.9008 309.611C92.1742 310.101 91.4645 310.641 90.7379 311.216C90.0113 311.79 89.2847 312.416 88.5074 313.041C88.1357 313.362 87.7132 313.649 87.4091 313.987C87.257 314.156 87.1387 314.342 87.0542 314.528C86.9866 314.714 86.9529 314.916 86.9866 315.136C87.0373 315.558 87.2739 315.998 87.5443 316.403C87.8146 316.826 88.1188 317.248 88.4229 317.688C89.0312 318.532 89.6565 319.394 90.2986 320.239C91.5828 321.946 92.9346 323.635 94.354 325.275C95.7734 326.914 97.2434 328.502 98.8149 329.921C99.6091 330.614 100.42 331.29 101.282 331.831C101.721 332.101 102.161 332.338 102.617 332.507C103.073 332.676 103.546 332.777 103.986 332.726C104.205 332.693 104.408 332.625 104.594 332.524C104.78 332.422 104.932 332.27 105.084 332.101L105.168 331.966C105.185 331.949 105.202 331.932 105.219 331.898L105.27 331.814L105.354 331.645L105.422 331.51C105.523 331.307 105.591 331.087 105.642 330.868C105.743 330.428 105.76 329.972 105.692 329.516C105.658 329.296 105.608 329.076 105.54 328.874L105.489 328.705L105.439 328.553C105.405 328.434 105.354 328.333 105.32 328.232C104.678 326.491 104.036 324.835 103.445 323.314C102.87 321.794 102.363 320.374 101.958 319.107C101.552 317.84 101.265 316.724 101.045 315.795C100.995 315.558 100.944 315.339 100.893 315.136C100.843 314.933 100.809 314.73 100.775 314.545C100.707 314.19 100.64 313.869 100.606 313.615Z" fill="#52565B"/>
<path d="M100.484 321.811C100.501 321.76 100.501 321.709 100.501 321.642C100.501 321.591 100.501 321.54 100.484 321.473C100.484 321.371 100.467 321.253 100.467 321.152C100.45 320.932 100.45 320.712 100.467 320.493C100.467 320.273 100.501 320.053 100.517 319.834C100.534 319.715 100.551 319.614 100.585 319.496C100.602 319.445 100.619 319.377 100.636 319.31C100.653 319.276 100.653 319.242 100.67 319.208C100.686 319.175 100.703 319.124 100.788 319.039L100.686 319.31C100.686 319.225 100.67 319.141 100.653 319.073C100.653 319.039 100.636 319.022 100.636 319.006C100.636 319.006 100.653 319.022 100.703 319.022C100.737 319.022 100.737 319.006 100.72 319.022C100.703 319.022 100.67 319.039 100.636 319.056C100.568 319.09 100.484 319.141 100.416 319.208C100.264 319.327 100.095 319.462 99.9261 319.58C99.8416 319.648 99.7571 319.698 99.6557 319.749C99.5543 319.8 99.4529 319.85 99.3516 319.85C99.4361 319.783 99.5036 319.715 99.5543 319.631C99.6219 319.546 99.6726 319.462 99.7233 319.377C99.8416 319.208 99.9599 319.039 100.095 318.87C100.163 318.786 100.247 318.701 100.349 318.617C100.399 318.583 100.45 318.532 100.534 318.499C100.602 318.465 100.72 318.431 100.855 318.465C100.991 318.499 101.109 318.583 101.16 318.668C101.21 318.752 101.244 318.82 101.278 318.887C101.329 319.022 101.345 319.141 101.362 319.259L101.261 319.529C101.312 319.479 101.295 319.479 101.295 319.496L101.278 319.546C101.261 319.58 101.261 319.631 101.244 319.681L101.176 319.986C101.126 320.188 101.092 320.408 101.041 320.611C100.991 320.814 100.923 321.033 100.839 321.236C100.805 321.337 100.754 321.439 100.703 321.54C100.67 321.591 100.653 321.642 100.619 321.692C100.585 321.726 100.534 321.794 100.484 321.811Z" fill="#52565B"/>
<path d="M102.833 331.78C102.833 331.78 102.765 331.729 102.647 331.611C102.529 331.51 102.343 331.341 102.123 331.138C101.903 330.935 101.633 330.682 101.329 330.394C101.177 330.242 101.025 330.09 100.856 329.921C100.687 329.752 100.518 329.583 100.332 329.398C99.977 329.026 99.5884 328.62 99.1998 328.181C98.7942 327.742 98.3887 327.268 97.9662 326.778C97.5438 326.288 97.1214 325.781 96.6989 325.241C96.2765 324.717 95.854 324.176 95.4147 323.635C94.9923 323.095 94.5867 322.537 94.1812 321.996C93.7756 321.456 93.387 320.915 93.0153 320.391C92.6435 319.867 92.2718 319.36 91.9338 318.87C91.5959 318.38 91.2748 317.924 90.9875 317.502C90.3961 316.657 89.923 315.93 89.6019 315.44C89.264 314.933 89.0781 314.646 89.0781 314.646C89.0781 314.646 89.3147 314.899 89.7033 315.356C89.9061 315.575 90.1427 315.863 90.413 316.184C90.6834 316.505 90.9875 316.876 91.3086 317.265C91.6297 317.671 91.9845 318.093 92.3563 318.566C92.728 319.022 93.1166 319.512 93.5053 320.019C93.8939 320.526 94.3164 321.05 94.7219 321.591C95.1274 322.132 95.5499 322.672 95.9723 323.213C96.3948 323.754 96.8003 324.294 97.2227 324.835C97.6452 325.359 98.0507 325.883 98.4394 326.39C98.8449 326.897 99.2335 327.37 99.5884 327.843C99.9601 328.299 100.298 328.739 100.636 329.127C100.957 329.533 101.261 329.888 101.532 330.209C101.802 330.53 102.039 330.817 102.224 331.037C102.427 331.256 102.579 331.442 102.681 331.577C102.782 331.712 102.833 331.78 102.833 331.78Z" fill="#52565B"/>
<path d="M52.9588 324.886C52.1647 326.88 51.0832 330.006 54.2093 330.716C56.0004 331.121 57.8591 329.972 58.8561 328.434C60.5289 325.815 62.1342 320.324 62.6242 317.231C63.1312 314.004 60.2417 310.996 57.555 313.666C55.24 315.913 54.1417 321.878 52.9588 324.886Z" fill="#FFCDBE"/>
<path d="M55.4566 327.015C56.2677 327.606 57.2816 327.809 58.363 327.454C59.2417 327.167 59.9514 326.643 60.6273 324.717C63.804 329.888 67.1666 333.064 71.2896 337.61C72.0331 338.421 72.4555 339.502 72.3711 340.601C71.7628 347.461 52.7192 335.278 49.8973 333.284C49.289 332.845 48.63 332.338 48.4949 331.594C48.3935 330.952 48.7314 330.31 49.0694 329.752C50.4719 327.353 51.8744 324.497 53.6486 322.571C53.6824 322.537 53.7331 322.571 53.7331 322.622C53.5303 324.024 53.9696 325.173 54.3414 325.798C54.6456 326.288 55.0342 326.711 55.4566 327.015Z" fill="white"/>
<path d="M60.6293 324.717C60.6293 324.717 60.7813 324.953 61.0686 325.376C61.2038 325.596 61.3897 325.849 61.6093 326.153C61.829 326.457 62.0825 326.812 62.3528 327.201C62.9273 327.978 63.637 328.891 64.5157 329.921C65.3775 330.935 66.4082 332.05 67.5404 333.267C68.6725 334.467 69.9229 335.751 71.2071 337.153C71.3592 337.322 71.5282 337.491 71.6971 337.694C71.8661 337.897 72.0013 338.1 72.1196 338.336C72.373 338.793 72.542 339.299 72.6265 339.823C72.6603 340.094 72.6772 340.364 72.6434 340.634C72.6265 340.786 72.6265 340.888 72.5927 341.04C72.5589 341.175 72.5251 341.327 72.4744 341.462C72.2886 342.003 71.8323 342.493 71.2916 342.713C71.0212 342.831 70.7509 342.916 70.4636 342.949C70.1933 343 69.906 343 69.6357 343C69.078 343 68.5373 342.916 68.0135 342.814C66.9489 342.594 65.9013 342.273 64.8705 341.885C62.8259 341.107 60.8151 340.144 58.855 339.114C56.8949 338.066 54.9855 336.951 53.1437 335.819C52.2143 335.244 51.3018 334.67 50.4232 334.061C49.9838 333.757 49.5445 333.47 49.122 333.115C48.9193 332.929 48.6996 332.726 48.5306 332.49C48.3617 332.253 48.2265 331.949 48.1927 331.645C48.1927 331.611 48.1927 331.577 48.1758 331.543V331.425C48.1758 331.341 48.1758 331.273 48.1927 331.189C48.2096 331.037 48.2434 330.901 48.2772 330.766C48.3617 330.496 48.4799 330.242 48.6151 330.006C48.7503 329.769 48.8686 329.566 49.0038 329.347C49.122 329.127 49.2572 328.907 49.3755 328.705C49.8655 327.843 50.3556 326.998 50.8456 326.187C51.3356 325.376 51.8256 324.582 52.3664 323.855C52.6367 323.483 52.9071 323.145 53.1943 322.824C53.2619 322.74 53.3464 322.655 53.414 322.588L53.4647 322.52L53.4985 322.486C53.4816 322.486 53.5323 322.453 53.5661 322.436C53.5999 322.419 53.6337 322.419 53.6675 322.419C53.8027 322.419 53.9209 322.537 53.9209 322.672C53.9209 322.706 53.9209 322.706 53.9209 322.723V322.74V322.774C53.8871 322.993 53.8702 323.179 53.8702 323.382C53.8365 324.97 54.6306 326.424 55.729 327.116C56.2697 327.471 56.8949 327.623 57.4525 327.589C57.7398 327.589 58.0101 327.539 58.2636 327.471C58.5171 327.404 58.7536 327.319 58.9564 327.201C59.3619 326.964 59.6492 326.643 59.8689 326.339C60.0716 326.035 60.2237 325.748 60.3251 325.511C60.4265 325.274 60.511 325.089 60.5617 324.97C60.5955 324.784 60.6293 324.717 60.6293 324.717C60.6293 324.717 60.6124 324.784 60.5617 324.903C60.5279 325.038 60.4603 325.224 60.3589 325.46C60.2575 325.697 60.1223 325.984 59.9365 326.322C59.7337 326.643 59.4464 326.998 59.024 327.252C58.8043 327.387 58.5678 327.488 58.3143 327.556C58.0608 327.64 57.7736 327.691 57.4694 327.708C56.878 327.742 56.2021 327.623 55.6107 327.252C54.411 326.542 53.5154 325.021 53.4985 323.297C53.4985 323.095 53.5154 322.858 53.5323 322.655V322.622V322.605C53.5323 322.689 53.583 322.757 53.6844 322.757C53.7013 322.757 53.7351 322.757 53.752 322.74C53.7858 322.723 53.8196 322.706 53.7858 322.723L53.7689 322.74L53.7182 322.807C53.6506 322.892 53.583 322.96 53.5154 323.044C53.245 323.365 52.9747 323.72 52.7381 324.075C52.2312 324.801 51.7581 325.579 51.2849 326.39C50.8118 327.201 50.3556 328.063 49.8655 328.941C49.629 329.381 49.3755 329.803 49.122 330.242C48.8855 330.665 48.7165 331.104 48.7841 331.527C48.8348 331.932 49.1389 332.304 49.5107 332.608C49.8824 332.929 50.3387 333.216 50.778 333.504C51.6567 334.078 52.5691 334.653 53.4816 335.227C55.3234 336.359 57.2329 337.458 59.1761 338.488C61.1193 339.519 63.0963 340.482 65.1071 341.243C66.1041 341.614 67.1179 341.952 68.1318 342.172C68.6387 342.273 69.1456 342.358 69.6525 342.358C70.1426 342.375 70.6495 342.307 71.055 342.138C71.2578 342.054 71.4437 341.919 71.5958 341.766C71.6802 341.699 71.7309 341.598 71.7985 341.513C71.8492 341.412 71.8999 341.327 71.9337 341.226C71.9844 341.124 72.0013 341.023 72.0351 340.922C72.0689 340.82 72.0689 340.668 72.0858 340.567C72.1027 340.33 72.1027 340.111 72.0858 339.874C72.0351 339.418 71.883 338.978 71.6802 338.573C71.5789 338.37 71.4437 338.184 71.3085 337.998C71.1733 337.829 71.0043 337.643 70.8523 337.475C69.585 336.072 68.3852 334.737 67.27 333.52C66.1548 332.287 65.1747 331.138 64.3467 330.073C63.5018 329.026 62.8259 328.063 62.2683 327.268C61.998 326.863 61.7614 326.508 61.5586 326.187C61.3559 325.866 61.1869 325.596 61.0517 325.376C60.7644 324.953 60.6293 324.717 60.6293 324.717Z" fill="#52565B"/>
<path d="M63.9577 333.183C63.9577 333.115 63.9239 333.081 63.9071 333.031C63.8902 332.98 63.8564 332.929 63.8395 332.878C63.7888 332.777 63.7381 332.676 63.7043 332.574C63.6198 332.372 63.5353 332.169 63.4677 331.966C63.4001 331.763 63.3325 331.544 63.2818 331.341C63.2649 331.239 63.2312 331.121 63.2143 331.003C63.2143 330.952 63.1974 330.885 63.1974 330.817C63.1974 330.783 63.1974 330.749 63.1974 330.699C63.1974 330.648 63.1974 330.597 63.2311 330.496L63.2143 330.699C63.2143 330.665 63.1974 330.648 63.1974 330.631C63.1974 330.614 63.1974 330.631 63.248 330.665C63.2818 330.682 63.3325 330.682 63.3494 330.682C63.3832 330.682 63.3832 330.665 63.4001 330.665C63.4001 330.665 63.3832 330.665 63.3494 330.682C63.2987 330.716 63.248 330.766 63.1805 330.834C63.1298 330.901 63.0622 330.952 62.9946 331.02C62.8763 331.155 62.7411 331.29 62.6059 331.425C62.5384 331.493 62.4708 331.56 62.3863 331.611C62.3187 331.679 62.2342 331.729 62.1328 331.763C62.2342 331.594 62.2849 331.425 62.3694 331.256C62.437 331.087 62.5215 330.918 62.6059 330.749C62.6566 330.665 62.6904 330.58 62.7411 330.496C62.7918 330.411 62.8425 330.327 62.927 330.242C62.9777 330.192 63.0115 330.158 63.096 330.107C63.1467 330.09 63.1974 330.057 63.2649 330.057C63.3325 330.04 63.4339 330.057 63.5015 330.107C63.6536 330.192 63.6874 330.276 63.7381 330.344C63.7719 330.411 63.7888 330.479 63.8057 330.53L63.7888 330.732C63.8057 330.682 63.8057 330.682 63.8057 330.682V330.732C63.8057 330.766 63.8226 330.817 63.8226 330.868L63.8733 331.172C63.9071 331.375 63.9408 331.594 63.9746 331.814C63.9915 332.034 64.0253 332.253 64.0253 332.473C64.0253 332.591 64.0253 332.693 64.0084 332.811C64.0084 332.862 63.9915 332.929 63.9746 332.98C64.0084 333.081 63.9915 333.149 63.9577 333.183Z" fill="#52565B"/>
<path d="M69.4288 341.598C69.4288 341.598 69.3443 341.564 69.1922 341.496C69.0401 341.429 68.8205 341.327 68.5332 341.192C68.246 341.057 67.908 340.888 67.5194 340.685C67.1307 340.482 66.6914 340.263 66.2183 340.009C65.7451 339.756 65.2382 339.485 64.6975 339.181C64.1568 338.877 63.5991 338.573 63.0246 338.235C62.4501 337.897 61.8587 337.542 61.2673 337.17C60.6759 336.799 60.0676 336.427 59.4592 336.038C58.8678 335.65 58.2764 335.261 57.685 334.872C57.0936 334.484 56.536 334.078 55.9952 333.706C55.4545 333.318 54.9307 332.946 54.4407 332.574C53.9506 332.219 53.4775 331.865 53.072 331.544C52.6495 331.222 52.2609 330.918 51.9229 330.648C51.585 330.378 51.2977 330.141 51.0443 329.938C50.5711 329.533 50.3008 329.313 50.3008 329.313C50.3008 329.313 50.6049 329.499 51.1288 329.837C51.6526 330.175 52.3961 330.665 53.2916 331.239C54.1872 331.814 55.218 332.507 56.3332 333.233C56.8908 333.588 57.4653 333.977 58.0567 334.349C58.6313 334.737 59.2396 335.109 59.831 335.498C60.4224 335.886 61.0138 336.275 61.6052 336.647C62.1966 337.018 62.7712 337.39 63.3288 337.745C64.444 338.455 65.5086 339.131 66.4041 339.688C67.2997 340.263 68.0432 340.736 68.567 341.074C68.8374 341.243 69.0401 341.378 69.1753 341.462C69.3443 341.547 69.4288 341.598 69.4288 341.598Z" fill="#52565B"/>
<path d="M93.5451 123.366C94.7955 122.775 95.9952 122.149 97.0428 121.423C103.092 117.249 109.395 111.926 113.839 105.995C117.218 101.484 121.156 96.989 126.225 94.3361C130.314 92.1901 134.978 91.21 139.574 91.1931C141.754 91.1931 143.95 91.2438 146.096 91.5649C148.023 91.8521 148.428 92.6632 146.333 93.4574C144.846 94.015 143.308 94.2516 141.838 94.8768C139.996 95.6541 139.05 95.2147 137.174 94.6064C135.856 94.184 135.383 94.3867 134.201 94.8768C131.649 95.9413 129.621 97.1241 128.506 99.8109C127.087 103.224 127.002 107.499 126.225 111.25C125.11 116.573 123.673 124.718 120.936 129.263C115.292 138.624 104.14 148.611 92.396 145.688C85.3835 143.93 84.5049 138.54 83.7276 132.423C83.2714 128.908 82.4265 129.804 84.8935 127.895C87.2592 126.002 90.5542 124.785 93.5451 123.366Z" fill="#FFCDBE"/>
<path d="M134.553 212.855C142.647 223.585 147.531 236.377 144.827 248.813C142.816 258.056 137.003 265.931 131.326 273.501C129.416 276.035 105.811 307.245 106.639 307.651C102.989 305.86 99.3388 304.068 95.689 302.277C99.3557 292.848 103.039 283.42 106.706 273.991C109.866 265.897 116.236 255.556 117.25 246.955C118.146 239.351 107.821 236.275 101.772 231.865C95.1482 227.033 88.9131 221.608 83.9452 215.052C80.8698 210.997 78.2507 206.299 78.0817 201.213C77.7945 192.528 85.787 187.408 93.7457 187.07C99.0685 186.85 104.273 188.743 109.021 191.159C118.044 195.755 127.507 203.528 134.553 212.855Z" fill="#012113"/>
<path d="M75.3481 196.279C73.3373 199.286 71.732 203.274 70.6506 206.029C65.0575 220.375 64.8716 236.275 63.8409 251.449C63.0298 263.565 61.6442 275.646 59.701 287.644C58.7378 293.642 57.6226 299.607 56.3722 305.555C56.0004 307.312 55.6287 309.053 55.24 310.81C54.6824 313.311 54.3614 315.846 53.7193 318.313C53.601 318.786 53.4827 319.259 53.3982 319.732C53.3644 319.935 53.3306 320.138 53.3813 320.34C53.3982 320.425 53.3644 320.408 53.4489 320.476C53.4996 320.509 53.6348 320.492 53.7024 320.492C53.9558 320.526 54.2769 320.56 54.5135 320.645C56.7608 321.439 59.1772 322.148 61.3232 323.213C61.509 323.314 61.7456 323.365 61.9484 323.433C62.0667 323.466 62.337 323.635 62.4722 323.585C62.506 323.162 62.7088 322.774 62.8946 322.402C63.0467 322.064 63.165 321.709 63.334 321.388C65.3617 317.417 67.2711 313.412 69.3157 309.441C71.8334 304.558 74.3343 299.692 76.852 294.808C79.3697 289.925 81.8706 285.058 84.3883 280.175C98.3964 252.97 105.307 222.875 108.265 192.561C109.143 183.47 103.635 184.484 95.7265 182.152C86.3822 179.398 80.7046 188.286 75.3481 196.279Z" fill="#001A0F"/>
<path d="M80.4623 113.244C80.4454 113.042 80.4285 112.839 80.3947 112.619C80.2934 111.757 79.9723 110.913 80.1751 110.068C80.3778 109.273 80.7327 108.513 81.3748 107.972C83.318 106.283 86.613 103.816 87.8972 105.945C88.6745 107.246 89.0632 111.926 88.9956 113.447C88.9618 114.292 88.3873 115.221 87.7621 115.779C87.4748 116.032 87.12 116.201 86.8327 116.438C86.0892 117.063 85.8526 118.145 86.0047 119.091C86.2413 120.561 87.1369 122.065 88.1 123.163C89.1139 124.312 90.415 125.664 89.9249 127.117C89.6377 127.962 88.8266 128.486 88.0324 128.892C86.0216 129.905 83.487 130.243 81.2903 130.497C80.1075 130.632 75.5451 131.342 75.41 129.635C75.3762 129.229 75.5789 128.858 75.7648 128.503C77.6066 125.106 79.6344 121.761 80.2765 117.891C80.5299 116.354 80.5975 114.782 80.4623 113.244Z" fill="#FFCDBE"/>
<path d="M71.2238 135.6C72.3221 133.538 73.5725 131.561 74.9243 129.669C75.0933 129.432 76.4451 127.185 76.5803 127.219C77.3238 127.371 77.8814 127.81 78.6587 127.945C79.9598 128.182 81.3116 128.232 82.6296 128.08C85.2994 127.776 87.8847 126.661 89.7942 124.785C90.7573 123.839 100.372 135.701 101.166 136.867C104.36 141.598 106.759 146.837 108.263 152.345C111.592 164.579 109.683 178.418 108.432 190.821C101.437 191.581 94.4579 192.105 87.5468 193.423C84.1335 194.082 80.754 194.859 77.3576 195.586C75.1947 196.042 74.975 196.651 74.2484 194.876C73.7922 193.778 72.7952 191.801 72.2376 190.5C69.0271 182.93 66.9487 174.903 66.1038 166.725C65.2758 158.496 65.5124 150.165 68.2667 142.308C69.0778 140.027 70.0747 137.78 71.2238 135.6Z" fill="#3F715C"/>
<path d="M75.4839 195.958C75.4839 195.958 75.4163 195.958 75.2811 195.924C75.146 195.89 74.9601 195.789 74.7573 195.603C74.5545 195.417 74.3518 195.147 74.149 194.826C73.9462 194.505 73.7266 194.099 73.49 193.66C73.0338 192.764 72.5775 191.632 72.0199 190.365C71.4623 189.097 70.854 187.627 70.2626 186.022C69.6543 184.417 69.0628 182.642 68.5221 180.75C67.9645 178.857 67.4576 176.847 67.0182 174.734C66.5789 172.622 66.2072 170.426 65.9368 168.195C65.6664 165.948 65.4806 163.667 65.3961 161.368C65.3116 159.07 65.3454 156.772 65.5144 154.508C65.6664 152.244 65.9875 150.03 66.4437 147.918C66.8831 145.806 67.4745 143.795 68.1673 141.936C68.8432 140.078 69.6205 138.371 70.4146 136.85C71.1919 135.312 72.003 133.961 72.7634 132.778C73.5238 131.595 74.2166 130.615 74.8249 129.804C74.977 129.601 75.0953 129.415 75.2304 129.229C75.3487 129.044 75.467 128.875 75.5684 128.706C75.7881 128.384 75.9739 128.114 76.126 127.894C76.4302 127.455 76.616 127.235 76.6498 127.269C76.6329 127.235 76.4471 127.472 76.1598 127.928C76.0077 128.148 75.8388 128.435 75.636 128.773C75.4332 129.111 75.2135 129.5 74.9263 129.905C74.3518 130.733 73.6928 131.747 72.9831 132.93C72.2734 134.13 71.513 135.498 70.7695 137.036C70.026 138.574 69.2994 140.28 68.6573 142.122C68.0152 143.964 67.4745 145.958 67.052 148.053C66.6296 150.149 66.3592 152.328 66.1903 154.559C66.0382 156.789 66.0213 159.07 66.0889 161.352C66.1734 163.633 66.3423 165.897 66.6127 168.127C66.8662 170.358 67.221 172.538 67.6266 174.633C68.049 176.728 68.5221 178.739 69.0291 180.632C69.5529 182.524 70.0936 184.298 70.6512 185.904C71.2088 187.526 71.7664 188.996 72.2734 190.28C72.7972 191.581 73.2196 192.713 73.6421 193.626C74.0645 194.521 74.4363 195.231 74.808 195.62C74.9939 195.806 75.1798 195.907 75.298 195.958C75.4163 195.958 75.4839 195.958 75.4839 195.958Z" fill="#52565B"/>
<path d="M75.4095 146.803C75.6798 152.278 79.1607 157.262 83.7062 160.321C88.2516 163.379 93.7771 164.714 99.235 165.221C110.033 166.218 121.472 163.937 129.955 157.178C136.004 152.345 140.228 145.519 143 138.287C145.027 133.015 146.312 127.489 147.342 121.947C147.815 119.429 148.018 116.556 148.914 114.174C149.725 111.994 151.415 110.287 152.158 108.074C152.969 105.657 152.918 103.393 151.584 101.247C149.742 98.3239 147.748 98.2394 147.461 101.771C147.241 104.373 147.815 107.212 147.325 109.78C146.599 113.701 144.723 117.3 143.135 120.899C140.634 126.577 136.528 132.22 131.746 136.174C126.44 140.568 119.259 143.119 112.55 141.565C107.278 140.331 102.885 136.783 98.0522 134.333C93.4729 132.018 87.4236 130.716 82.9289 133.859C78.5693 136.867 75.1391 141.261 75.4095 146.803Z" fill="#FFCDBE"/>
<path d="M99.2337 154.795C101.414 149.456 103.999 144.336 106.787 139.3C103.83 137.746 101.025 135.836 98.0509 134.332C93.4717 132.017 87.4224 130.716 82.9276 133.859C78.5849 136.884 75.1547 141.277 75.4251 146.82C75.6955 152.294 79.1764 157.279 83.7218 160.338C87.0168 162.551 90.8019 163.852 94.7052 164.596C96.4456 161.436 97.8819 158.09 99.2337 154.795Z" fill="#3F715C"/>
<path d="M98.0395 134.333C98.0395 134.333 97.8198 134.231 97.4312 134.062C97.2284 133.978 96.9749 133.876 96.6877 133.741C96.5356 133.674 96.3835 133.623 96.2145 133.555C96.0456 133.488 95.8597 133.42 95.6738 133.353C94.9134 133.065 93.9672 132.778 92.8519 132.558C91.7536 132.339 90.4694 132.187 89.1007 132.254C88.7627 132.254 88.4079 132.305 88.053 132.356C87.8672 132.372 87.6982 132.423 87.5123 132.44C87.3264 132.474 87.1575 132.508 86.9716 132.558C86.7857 132.609 86.6167 132.643 86.4309 132.694C86.245 132.744 86.076 132.812 85.8902 132.862C85.8057 132.896 85.7043 132.913 85.6198 132.947C85.5353 132.981 85.4339 133.015 85.3494 133.048C85.1636 133.116 84.9777 133.2 84.7918 133.268C84.0821 133.589 83.3555 133.961 82.6627 134.4C81.9699 134.839 81.294 135.363 80.635 135.921C79.9929 136.479 79.3846 137.121 78.8439 137.813C78.2863 138.506 77.7962 139.25 77.3738 140.044C77.2555 140.23 77.171 140.449 77.0696 140.652L76.9176 140.956L76.7993 141.277L76.681 141.599L76.6134 141.751L76.5627 141.92L76.4444 142.258L76.3937 142.426L76.343 142.595C76.0896 143.457 75.9206 144.37 75.853 145.265C75.7009 147.073 75.9544 148.915 76.512 150.639C77.0696 152.345 77.8976 153.951 78.9115 155.336C79.9084 156.739 81.0744 157.955 82.291 158.986C82.8993 159.493 83.5245 159.949 84.1328 160.372C84.4539 160.591 84.758 160.777 85.0622 160.963C85.3663 161.149 85.6705 161.335 85.9915 161.487C87.2082 162.146 88.391 162.67 89.4386 163.075C90.5032 163.481 91.4494 163.785 92.2267 164.005C92.6154 164.123 92.9702 164.207 93.2744 164.292C93.5785 164.376 93.8489 164.427 94.0517 164.478C94.4741 164.579 94.7107 164.63 94.7107 164.63C94.7107 164.63 94.4741 164.596 94.0517 164.512C93.6292 164.427 92.9871 164.326 92.1929 164.123C91.3988 163.937 90.4356 163.667 89.3541 163.312C88.2727 162.94 87.073 162.484 85.8057 161.825C85.4846 161.673 85.1805 161.487 84.8594 161.318C84.5383 161.132 84.2173 160.946 83.8962 160.743C83.2541 160.338 82.612 159.882 81.9699 159.375C80.7026 158.361 79.486 157.127 78.4383 155.691C77.3907 154.255 76.4782 152.633 75.9037 150.841C75.3123 149.067 75.0419 147.124 75.194 145.215C75.2785 144.251 75.4475 143.322 75.7178 142.393L75.7685 142.224L75.8192 142.055L75.9375 141.717L75.9882 141.548C76.022 141.48 76.0389 141.43 76.0558 141.379L76.191 141.041L76.3261 140.72L76.4782 140.399C76.5796 140.179 76.681 139.976 76.7993 139.774C76.9176 139.571 77.0189 139.368 77.1372 139.165C77.2555 138.962 77.3907 138.777 77.509 138.574C77.7793 138.202 78.0497 137.813 78.337 137.459C78.9284 136.749 79.5536 136.09 80.2295 135.515C80.9054 134.941 81.6151 134.417 82.3417 133.978C83.0852 133.538 83.8287 133.167 84.589 132.846C84.7749 132.761 84.9608 132.71 85.1467 132.626C85.2311 132.592 85.3325 132.558 85.417 132.525C85.5184 132.491 85.6198 132.457 85.7043 132.44C85.8902 132.389 86.076 132.322 86.2788 132.271C86.4647 132.22 86.6674 132.187 86.8533 132.136C87.0392 132.085 87.2251 132.068 87.4109 132.035C87.5968 132.018 87.7827 131.967 87.9686 131.95C88.3403 131.916 88.6951 131.882 89.05 131.882C89.7597 131.866 90.4356 131.916 91.0777 131.984C91.3987 132.035 91.7029 132.085 92.0071 132.136C92.3112 132.203 92.5985 132.254 92.8688 132.322C93.9841 132.592 94.9303 132.93 95.6738 133.251C96.4342 133.555 97.0087 133.843 97.3974 134.045C97.8367 134.214 98.0395 134.333 98.0395 134.333Z" fill="#52565B"/>
<path d="M81.1579 103.984C79.502 102.345 76.8152 101.839 74.6693 102.785C72.5402 103.731 71.087 106.046 71.1715 108.378C71.2222 109.527 71.6953 110.76 72.7091 111.284C73.4019 111.656 74.2468 111.639 74.9903 111.386C75.7338 111.149 76.3928 110.693 76.9842 110.186C75.9366 110.777 74.872 111.436 74.1792 112.416C73.4864 113.413 73.2837 114.833 73.9934 115.796C74.5172 116.506 75.4297 116.844 76.3083 116.894C78.505 117.012 80.6679 115.323 81.0734 113.16C81.2086 112.484 81.1748 111.774 81.2593 111.081C81.3438 110.389 81.5466 109.679 82.0366 109.189C82.5604 108.665 83.1856 108.648 83.8277 108.885C84.436 109.104 84.7909 109.138 85.4668 108.986C86.8355 108.682 88.1197 107.972 89.0829 106.942C90.5529 105.37 91.2288 103.106 90.9416 100.977C90.6543 98.8476 89.4039 96.8706 87.6466 95.6371C86.1934 94.6233 84.3684 94.0994 82.6111 94.2853C80.8369 94.4712 79.1471 95.3837 78.0995 96.8199C77.0518 98.2562 76.6801 100.183 77.2208 101.889L81.1579 103.984Z" fill="#323232"/>
<path d="M102.891 138.692C102.891 138.692 102.857 138.793 102.789 138.979C102.722 139.165 102.637 139.435 102.502 139.79C102.249 140.483 101.894 141.48 101.455 142.646C101.235 143.237 100.998 143.879 100.728 144.555C100.475 145.231 100.204 145.941 99.9 146.668C99.6128 147.394 99.3086 148.155 99.0045 148.915C98.7003 149.675 98.3792 150.453 98.0582 151.23C97.7371 152.007 97.4161 152.784 97.095 153.545C96.774 154.305 96.4529 155.049 96.1488 155.775C95.8446 156.502 95.5236 157.195 95.2363 157.854C94.949 158.513 94.6618 159.138 94.4083 159.712C93.8845 160.861 93.4452 161.808 93.1241 162.484C92.972 162.822 92.8369 163.075 92.7524 163.261C92.6679 163.43 92.6172 163.531 92.6172 163.531C92.6172 163.531 92.651 163.43 92.7186 163.244C92.7862 163.058 92.8706 162.788 93.0058 162.433C93.2593 161.74 93.6141 160.743 94.0535 159.577C94.2731 158.986 94.5097 158.344 94.7801 157.668C95.0335 156.992 95.3039 156.282 95.608 155.556C95.8953 154.829 96.1995 154.069 96.5036 153.308C96.8078 152.548 97.1288 151.771 97.4499 150.993C97.7709 150.216 98.092 149.439 98.413 148.678C98.7341 147.918 99.0551 147.174 99.3593 146.448C99.6635 145.721 99.9845 145.028 100.272 144.369C100.559 143.71 100.846 143.085 101.1 142.511C101.624 141.362 102.063 140.415 102.384 139.74C102.536 139.402 102.671 139.148 102.756 138.962C102.84 138.776 102.891 138.692 102.891 138.692Z" fill="#52565B"/>
<path d="M108.231 188.219C108.231 188.219 107.707 188.303 106.778 188.455C105.848 188.607 104.513 188.81 102.925 189.047C101.32 189.283 99.4611 189.554 97.4672 189.858C96.4703 190.01 95.4395 190.162 94.3919 190.314C93.3442 190.466 92.2797 190.635 91.2151 190.787C90.1506 190.956 89.086 191.108 88.0384 191.294C86.9907 191.463 85.96 191.632 84.9799 191.801C84.4899 191.886 83.9999 191.97 83.5098 192.054C83.0367 192.139 82.5636 192.207 82.1074 192.291C81.1949 192.46 80.3331 192.612 79.5389 192.764C78.7447 192.916 78.0181 193.051 77.376 193.17C76.7339 193.288 76.1763 193.406 75.7032 193.491C74.7738 193.677 74.25 193.778 74.25 193.778C74.25 193.778 74.7738 193.626 75.6694 193.356C76.1256 193.22 76.6663 193.068 77.3085 192.916C77.6295 192.832 77.9675 192.747 78.3223 192.646C78.6772 192.561 79.0489 192.46 79.4544 192.376C79.8431 192.274 80.2655 192.19 80.688 192.088C81.1104 191.987 81.5497 191.902 82.006 191.801C82.9184 191.598 83.8647 191.412 84.8616 191.21C85.8586 191.024 86.8725 190.821 87.9201 190.652C88.9677 190.466 90.0323 190.297 91.0968 190.128C92.1614 189.976 93.2259 189.807 94.2736 189.672C95.3212 189.52 96.3689 189.402 97.3658 189.266C98.3628 189.148 99.3428 189.03 100.255 188.928C101.168 188.827 102.046 188.743 102.858 188.658C103.669 188.574 104.395 188.506 105.054 188.455C105.713 188.405 106.271 188.354 106.744 188.32C107.707 188.269 108.231 188.219 108.231 188.219Z" fill="#52565B"/>
<path opacity="0.1" d="M95.1646 197.495L95.3167 197.935L95.435 198.374L95.5195 198.83L95.5871 199.287L95.6209 199.743V200.199L95.604 200.655L95.5533 201.111L95.4857 201.568L95.3843 202.024L95.2491 202.463L95.097 202.903L94.9112 203.325L94.7084 203.747L94.4718 204.153L94.2184 204.542L93.9311 204.913L93.6101 205.268L93.2721 205.606L92.9173 205.927L92.5455 206.214L92.1569 206.485L91.7513 206.738L91.3289 206.958L90.9065 207.161L90.4671 207.33L90.0109 207.482L89.5546 207.6L89.0984 207.685L88.6253 207.752L88.1521 207.786H87.679L88.0001 207.549C87.8649 208.124 87.7635 208.715 87.679 209.307C87.5776 209.898 87.4931 210.49 87.4087 211.081L86.8848 214.646L85.8372 221.777C85.4823 224.16 85.1106 226.525 84.722 228.908C84.3333 231.274 83.9278 233.656 83.5053 236.022C81.8156 245.484 79.8724 254.913 77.6081 264.258C76.476 268.938 75.2255 273.585 73.9075 278.198C73.2485 280.513 72.5557 282.811 71.846 285.109C71.1363 287.407 70.3928 289.688 69.6325 291.969C68.8721 294.251 68.0779 296.515 67.2499 298.779C66.4219 301.043 65.577 303.291 64.6984 305.521C63.8197 307.752 62.8903 309.982 61.961 312.196C61.0147 314.409 60.0178 316.589 59.0039 318.769C60.964 314.376 62.789 309.932 64.4956 305.454C65.3405 303.206 66.1685 300.959 66.9626 298.678C67.7568 296.414 68.5341 294.132 69.2776 291.851C70.0211 289.57 70.7477 287.272 71.4236 284.974C72.1164 282.676 72.7923 280.361 73.4344 278.063C74.0765 275.748 74.7017 273.433 75.2931 271.101C75.8845 268.769 76.4591 266.437 77.0336 264.105C79.2809 254.761 81.2073 245.349 82.8632 235.887C83.2857 233.521 83.6743 231.155 84.063 228.79C84.4516 226.424 84.8233 224.041 85.1782 221.676L86.2427 214.545L86.7666 210.98C86.851 210.388 86.9524 209.797 87.0538 209.188C87.1552 208.597 87.2566 208.006 87.3918 207.397L87.4425 207.161H87.6959H88.1353L88.5746 207.127L89.0139 207.076L89.4364 206.992L89.8588 206.89L90.2812 206.755L90.6868 206.603L91.0923 206.434L91.481 206.231L91.8696 206.012L92.2414 205.775L92.5962 205.522L92.9342 205.234L93.2552 204.93L93.5594 204.609L93.8466 204.271L94.1001 203.916L94.3366 203.545L94.5563 203.156L94.7422 202.751L94.9112 202.345L95.0632 201.923L95.1815 201.5L95.2829 201.061L95.3505 200.621L95.4012 200.182L95.4181 199.726V199.27L95.3843 198.813L95.3336 198.357L95.2491 197.918L95.1646 197.495Z" fill="#49F3AB"/>
<path d="M140.151 103.883C143.429 98.0706 146.555 92.2072 149.934 86.4113C150.593 85.2792 151.269 84.1471 151.945 83.0149C152.165 82.6601 152.401 82.1532 152.756 81.9504C153.246 81.6631 154.311 81.7814 154.767 81.7307C155.696 81.6124 156.507 81.7814 157.352 81.8659C158.146 81.9504 161.577 81.0717 161.323 82.2376C161.154 83.0487 159.819 84.7216 159.295 85.5496C158.586 86.6817 157.792 87.7969 157.15 88.9629C153.821 95.0122 151.066 99.7942 147.079 106.283C146.622 107.026 146.065 108.446 145.355 108.547C144.493 108.665 143.767 108.395 142.989 108.361C141.621 108.311 140.049 108.615 138.849 108.226C138.089 107.973 137.92 107.837 138.495 106.79C139.002 105.86 139.559 104.931 140.083 104.002C140.1 103.951 140.117 103.917 140.151 103.883Z" fill="white"/>
<path opacity="0.1" d="M142.184 102.143C144.786 97.5129 147.304 92.883 149.973 88.27C150.497 87.3744 151.038 86.462 151.579 85.5664C151.748 85.2791 151.951 84.8736 152.221 84.7046C152.61 84.4681 153.421 84.5187 153.775 84.4681C154.502 84.3498 155.11 84.4512 155.769 84.4849C156.378 84.5187 159.031 83.7415 158.828 84.6539C158.676 85.296 157.628 86.6309 157.223 87.2899C156.665 88.2024 156.023 89.0811 155.533 90.0104C152.88 94.8093 150.058 99.6251 146.898 104.779C146.543 105.37 146.712 105.472 146.155 105.573C145.496 105.691 144.938 105.505 144.33 105.505C143.282 105.505 142.065 105.793 141.153 105.522C140.562 105.353 140.443 105.252 140.9 104.407C141.305 103.664 141.744 102.937 142.167 102.194C142.15 102.194 142.167 102.177 142.184 102.143Z" fill="#3F715C"/>
<path d="M146.898 91.7339C146.898 91.7339 147.203 91.1594 147.726 90.1455C147.997 89.6386 148.318 89.0303 148.69 88.3375C149.061 87.6447 149.484 86.8505 149.957 85.9887C150.43 85.1438 150.954 84.2145 151.511 83.2513C151.647 83.0148 151.782 82.7613 151.934 82.5078C152.086 82.2544 152.238 81.9671 152.559 81.7474L152.593 81.7305L152.61 81.7136L152.644 81.6967L152.694 81.6799C152.728 81.663 152.779 81.6461 152.813 81.6292C152.863 81.6123 152.897 81.5954 152.948 81.5785C152.982 81.5616 153.032 81.5616 153.066 81.5447C153.235 81.5109 153.387 81.494 153.556 81.4771C153.877 81.4602 154.181 81.4602 154.469 81.4433C154.536 81.4433 154.621 81.4433 154.671 81.4264L154.891 81.4095C155.06 81.3926 155.212 81.3926 155.381 81.3926C155.702 81.3926 156.023 81.4095 156.344 81.4433C156.648 81.4771 156.969 81.5109 157.29 81.5447C157.527 81.5785 157.865 81.5278 158.169 81.494C158.794 81.4095 159.453 81.325 160.129 81.3081C160.298 81.3081 160.467 81.3081 160.653 81.325C160.839 81.3588 161.025 81.3757 161.244 81.494C161.346 81.5616 161.464 81.6461 161.549 81.7981C161.616 81.9333 161.65 82.1023 161.633 82.2375V82.2882V82.3051C161.633 82.2882 161.616 82.3389 161.633 82.3389L161.616 82.3895C161.599 82.4233 161.599 82.4571 161.582 82.5078C161.549 82.5923 161.515 82.7106 161.481 82.7782C161.329 83.0992 161.16 83.3865 160.974 83.6738C160.788 83.961 160.602 84.2314 160.416 84.4848C160.231 84.7552 160.045 85.0087 159.859 85.279C159.774 85.4142 159.673 85.5325 159.588 85.6677L159.335 86.0732C158.642 87.1547 157.916 88.1854 157.324 89.233C156.733 90.2976 156.141 91.3283 155.567 92.2915C155.009 93.2547 154.469 94.1671 153.962 95.012C152.965 96.6849 152.086 98.0705 151.478 99.0336C151.174 99.5067 150.937 99.8954 150.768 100.149C150.599 100.402 150.515 100.537 150.515 100.537C150.515 100.537 150.819 99.963 151.359 98.966C151.9 97.9691 152.677 96.5328 153.607 94.8261C154.536 93.1026 155.618 91.1087 156.783 88.9627C157.358 87.8643 158.068 86.8167 158.76 85.7353L159.014 85.3297C159.098 85.1945 159.2 85.0594 159.284 84.9242C159.47 84.6538 159.656 84.4004 159.842 84.13C160.197 83.6062 160.569 83.0654 160.822 82.5247C160.856 82.4571 160.873 82.4064 160.906 82.3389C160.923 82.3051 160.923 82.2713 160.94 82.2206L160.957 82.1699C160.957 82.153 160.957 82.2037 160.957 82.1868V82.1699C160.957 82.1361 160.957 82.1361 160.957 82.1361C160.957 82.1361 160.94 82.1192 160.923 82.1023C160.856 82.0685 160.721 82.0347 160.585 82.0178C160.45 82.0009 160.298 82.0009 160.146 82.0009C159.538 82.0009 158.896 82.1023 158.254 82.1699C158.085 82.1868 157.933 82.2037 157.764 82.2206C157.679 82.2206 157.595 82.2375 157.51 82.2375C157.459 82.2375 157.409 82.2375 157.358 82.2375H157.29H157.223C156.902 82.2037 156.598 82.153 156.277 82.1192C155.972 82.0854 155.668 82.0516 155.381 82.0516C155.229 82.0516 155.094 82.0516 154.942 82.0685L154.705 82.0854C154.621 82.0854 154.536 82.1023 154.452 82.1023C154.131 82.1023 153.843 82.1023 153.556 82.1192C153.421 82.1192 153.269 82.1361 153.151 82.1699C153.117 82.1699 153.083 82.1868 153.066 82.1868C153.032 82.1868 152.998 82.2037 152.982 82.2037C152.965 82.2037 152.948 82.2206 152.897 82.2375L152.846 82.2544L152.829 82.2713C152.66 82.3726 152.492 82.6092 152.356 82.8289C152.204 83.0654 152.052 83.3189 151.917 83.5555C151.342 84.5186 150.785 85.4142 150.261 86.2422C149.754 87.0702 149.298 87.8474 148.875 88.5234C148.47 89.1993 148.098 89.7907 147.811 90.2807C147.236 91.1763 146.898 91.7339 146.898 91.7339Z" fill="#52565B"/>
<path d="M147.89 104.829C147.89 104.829 147.839 104.931 147.755 105.117C147.653 105.302 147.518 105.573 147.349 105.911C147.163 106.249 146.944 106.654 146.656 107.111C146.521 107.347 146.369 107.584 146.183 107.82C146.099 107.939 145.997 108.074 145.896 108.192C145.795 108.31 145.676 108.429 145.524 108.53C144.848 108.783 144.105 108.598 143.378 108.547C142.652 108.479 141.874 108.598 141.046 108.648C140.624 108.682 140.202 108.699 139.762 108.665C139.543 108.648 139.323 108.631 139.086 108.581C138.968 108.564 138.867 108.53 138.748 108.496C138.647 108.462 138.529 108.429 138.427 108.378C138.309 108.327 138.191 108.276 138.056 108.158C137.988 108.091 137.92 108.006 137.887 107.905C137.853 107.803 137.836 107.702 137.836 107.617C137.836 107.448 137.887 107.33 137.92 107.212C137.971 107.094 138.005 106.992 138.056 106.891C138.106 106.789 138.157 106.688 138.208 106.587L138.36 106.299L138.681 105.725C139.12 104.965 139.543 104.204 139.982 103.461C140.404 102.717 140.81 101.974 141.232 101.247C141.638 100.537 142.027 99.8446 142.415 99.2025C142.804 98.5604 143.159 97.9352 143.497 97.3775C143.835 96.8199 144.139 96.2961 144.426 95.8399C144.713 95.3836 144.95 94.995 145.153 94.657C145.355 94.336 145.524 94.0825 145.626 93.9136C145.744 93.7446 145.795 93.6432 145.795 93.6432C145.795 93.6432 145.744 93.7446 145.659 93.9304C145.575 94.1163 145.44 94.3867 145.271 94.7415C145.102 95.0795 144.899 95.5019 144.663 95.9919C144.426 96.4651 144.156 97.0058 143.851 97.5972C143.547 98.1886 143.226 98.8138 142.871 99.4897C142.517 100.166 142.145 100.858 141.756 101.585C141.368 102.312 140.962 103.055 140.54 103.816C140.134 104.576 139.678 105.336 139.238 106.08L138.917 106.654L138.765 106.942C138.715 107.026 138.664 107.127 138.613 107.212C138.563 107.296 138.529 107.398 138.495 107.482C138.461 107.567 138.444 107.651 138.427 107.702C138.427 107.753 138.427 107.736 138.444 107.77C138.461 107.803 138.546 107.837 138.63 107.871C139.357 108.192 140.185 108.226 140.996 108.209C141.401 108.209 141.807 108.192 142.212 108.192C142.618 108.192 143.007 108.209 143.395 108.276C143.767 108.344 144.122 108.429 144.477 108.479C144.646 108.496 144.815 108.53 144.984 108.53C145.068 108.53 145.153 108.53 145.237 108.53C145.271 108.53 145.322 108.53 145.355 108.513C145.389 108.496 145.423 108.496 145.457 108.479C145.592 108.395 145.693 108.293 145.795 108.175C145.896 108.057 145.997 107.939 146.082 107.82C146.268 107.584 146.42 107.347 146.572 107.127C146.859 106.688 147.096 106.283 147.282 105.945C147.468 105.607 147.62 105.353 147.721 105.167C147.839 104.931 147.89 104.829 147.89 104.829Z" fill="#52565B"/>
<path d="M151.034 79.0777C151.034 79.0777 150.899 78.9425 150.679 78.7059C150.46 78.4694 150.155 78.1145 149.784 77.709C149.598 77.5062 149.412 77.2696 149.209 77.0331C149.006 76.7965 148.787 76.543 148.567 76.2727C148.128 75.732 147.671 75.1574 147.215 74.5829C146.759 74.0084 146.303 73.417 145.897 72.8763C145.694 72.6059 145.492 72.3356 145.306 72.0821C145.12 71.8286 144.934 71.5921 144.782 71.3555C144.461 70.8993 144.191 70.5275 144.022 70.2572C143.836 69.9868 143.734 69.8347 143.734 69.8347C143.734 69.8347 143.87 69.953 144.123 70.1727C144.241 70.291 144.393 70.4092 144.545 70.5782C144.714 70.7303 144.883 70.9162 145.086 71.1189C145.289 71.3217 145.492 71.5414 145.711 71.7779C145.931 72.0145 146.151 72.2511 146.387 72.5214C146.607 72.7749 146.844 73.0621 147.08 73.3325C147.317 73.6198 147.536 73.907 147.773 74.1943C147.993 74.4815 148.229 74.7857 148.449 75.073C148.668 75.3602 148.871 75.6475 149.074 75.9347C149.277 76.222 149.463 76.4923 149.632 76.7627C149.817 77.0331 149.97 77.2865 150.122 77.5231C150.426 77.9962 150.645 78.4018 150.814 78.6721C150.95 78.9087 151.034 79.0777 151.034 79.0777Z" fill="#52565B"/>
<path d="M154.433 78.0805C154.433 78.0805 154.4 77.8778 154.332 77.5398C154.264 77.2019 154.197 76.695 154.112 76.1035C154.079 75.7994 154.028 75.4952 153.994 75.1404C153.96 74.8024 153.91 74.4476 153.876 74.0758C153.842 73.7041 153.808 73.3154 153.774 72.9268C153.741 72.5382 153.724 72.1326 153.69 71.744C153.673 71.3553 153.639 70.9498 153.622 70.5611C153.605 70.1725 153.588 69.7839 153.572 69.4121C153.555 69.0404 153.555 68.6855 153.555 68.3307C153.555 67.9927 153.555 67.6717 153.555 67.3675C153.555 66.7761 153.572 66.2692 153.588 65.9312C153.605 65.5764 153.622 65.3905 153.622 65.3905C153.622 65.3905 153.656 65.5933 153.724 65.9312C153.791 66.2692 153.859 66.7761 153.943 67.3675C153.977 67.6717 154.028 67.9758 154.062 68.3307C154.095 68.6686 154.146 69.0235 154.18 69.3952C154.214 69.767 154.247 70.1556 154.281 70.5443C154.315 70.9329 154.332 71.3384 154.366 71.7271C154.383 72.1157 154.416 72.5213 154.433 72.9099C154.45 73.2985 154.467 73.6872 154.484 74.0589C154.501 74.4307 154.501 74.7855 154.501 75.1404C154.501 75.4783 154.501 75.7994 154.501 76.1035C154.501 76.695 154.484 77.2019 154.467 77.5398C154.45 77.8778 154.433 78.0805 154.433 78.0805Z" fill="#52565B"/>
<path d="M158.234 76.3401C158.234 76.3401 158.268 76.188 158.336 75.9514C158.403 75.698 158.505 75.3431 158.657 74.9376C158.927 74.0927 159.367 73.0113 159.84 71.9298C160.313 70.8653 160.837 69.8176 161.293 69.0403C161.512 68.6517 161.698 68.3475 161.834 68.1279C161.969 67.9082 162.053 67.7899 162.053 67.7899C162.053 67.7899 162.019 67.942 161.952 68.1786C161.884 68.432 161.783 68.7869 161.631 69.1924C161.36 70.0373 160.921 71.1187 160.448 72.2002C159.975 73.2647 159.434 74.3124 158.995 75.0897C158.775 75.4783 158.589 75.7824 158.454 76.0021C158.319 76.2049 158.234 76.3401 158.234 76.3401Z" fill="#52565B"/>
<path opacity="0.1" d="M271.696 292.071H170.345C166.577 292.071 163.535 289.013 163.535 285.261V96.4484C163.535 92.6802 166.594 89.6387 170.345 89.6387H271.696C275.464 89.6387 278.506 92.6971 278.506 96.4484V285.245C278.506 289.013 275.464 292.071 271.696 292.071Z" fill="#28805A"/>
<path d="M220.503 157.195C231.151 157.195 239.783 148.563 239.783 137.915C239.783 127.267 231.151 118.635 220.503 118.635C209.855 118.635 201.223 127.267 201.223 137.915C201.223 148.563 209.855 157.195 220.503 157.195Z" fill="#065F46"/>
<path d="M234.396 149.084C234.667 147.732 232.977 146.685 231.726 146.127C229.479 145.13 224.765 145.08 223.954 142.511C223.024 139.588 226.64 136.208 225.981 133.201C224.68 127.253 216.383 127.033 215.049 133.201C214.39 136.208 218.006 139.588 217.076 142.511C216.265 145.08 211.551 145.13 209.303 146.127C208.053 146.685 206.346 147.749 206.634 149.084C206.634 149.084 211.348 155.995 220.844 155.995C229.783 155.995 234.396 149.084 234.396 149.084Z" fill="white"/>
<path d="M221.026 290.736C227.288 290.736 232.364 285.66 232.364 279.398C232.364 273.136 227.288 268.06 221.026 268.06C214.764 268.06 209.688 273.136 209.688 279.398C209.688 285.66 214.764 290.736 221.026 290.736Z" fill="#065F46"/>
<path d="M214.875 276.999C214.875 276.999 214.943 277.049 215.044 277.117C215.162 277.201 215.331 277.32 215.534 277.472C215.956 277.776 216.548 278.232 217.224 278.79C217.917 279.347 218.711 280.006 219.539 280.733C219.742 280.919 219.961 281.105 220.181 281.291C220.282 281.375 220.401 281.476 220.502 281.578C220.603 281.662 220.688 281.73 220.772 281.781C220.806 281.798 220.857 281.814 220.891 281.831C220.907 281.831 220.924 281.848 220.941 281.848C220.924 281.848 220.975 281.848 220.907 281.848H220.941H220.992C221.026 281.848 221.11 281.848 221.178 281.814C221.347 281.764 221.533 281.612 221.719 281.426C221.904 281.24 222.124 281.02 222.31 280.801C222.513 280.598 222.715 280.378 222.918 280.175C223.324 279.753 223.729 279.347 224.118 278.959C224.912 278.181 225.656 277.472 226.315 276.863C226.974 276.272 227.531 275.782 227.92 275.444C228.123 275.275 228.275 275.14 228.393 275.055C228.494 274.971 228.562 274.92 228.562 274.92C228.562 274.92 228.511 274.988 228.444 275.089C228.359 275.207 228.241 275.376 228.089 275.579C227.768 276.002 227.312 276.576 226.754 277.269C226.196 277.962 225.52 278.739 224.777 279.567C224.405 279.989 224.033 280.412 223.628 280.834C223.425 281.054 223.239 281.257 223.037 281.476C222.834 281.696 222.648 281.899 222.411 282.135C222.175 282.355 221.904 282.592 221.499 282.744C221.296 282.811 221.076 282.845 220.823 282.811L220.772 282.794H220.738C220.671 282.778 220.722 282.794 220.705 282.794H220.688H220.671C220.62 282.778 220.569 282.761 220.502 282.744C220.401 282.71 220.299 282.659 220.215 282.609C220.046 282.507 219.91 282.389 219.809 282.288C219.708 282.186 219.606 282.085 219.505 281.983C219.302 281.781 219.099 281.578 218.897 281.392C218.119 280.615 217.393 279.871 216.784 279.212C216.176 278.553 215.686 278.012 215.348 277.607C215.179 277.404 215.044 277.252 214.959 277.151C214.926 277.049 214.875 276.999 214.875 276.999Z" fill="white"/>
<path d="M256.722 233.741H184.265C181.291 233.741 178.875 231.324 178.875 228.35V220.003C178.875 217.029 181.291 214.613 184.265 214.613H256.722C259.696 214.613 262.112 217.029 262.112 220.003V228.35C262.112 231.341 259.696 233.741 256.722 233.741Z" fill="white"/>
<path opacity="0.2" d="M194.807 228.165C197 228.165 198.778 226.387 198.778 224.194C198.778 222.001 197 220.223 194.807 220.223C192.614 220.223 190.836 222.001 190.836 224.194C190.836 226.387 192.614 228.165 194.807 228.165Z" fill="#065F46"/>
<path opacity="0.2" d="M252.704 221.287C252.704 221.287 252.518 221.304 252.18 221.321C251.842 221.338 251.335 221.372 250.71 221.389C250.068 221.422 249.307 221.456 248.412 221.473C247.533 221.507 246.519 221.541 245.438 221.575C244.34 221.608 243.174 221.642 241.923 221.659C240.673 221.676 239.355 221.71 237.986 221.727C236.617 221.744 235.215 221.76 233.779 221.777C232.342 221.777 230.889 221.794 229.436 221.794C227.983 221.794 226.529 221.777 225.093 221.777C223.657 221.777 222.254 221.744 220.886 221.727C219.517 221.71 218.199 221.676 216.949 221.659C215.698 221.642 214.515 221.608 213.434 221.575C212.336 221.541 211.339 221.507 210.46 221.473C209.581 221.439 208.804 221.406 208.162 221.372C207.52 221.338 207.03 221.321 206.692 221.304C206.354 221.287 206.168 221.27 206.168 221.27C206.168 221.27 206.354 221.254 206.692 221.237C207.03 221.22 207.537 221.186 208.162 221.169C208.804 221.135 209.564 221.101 210.46 221.068C211.339 221.034 212.352 221 213.434 220.966C214.532 220.932 215.698 220.899 216.949 220.882C218.199 220.848 219.517 220.831 220.886 220.814C222.254 220.797 223.657 220.763 225.093 220.763C226.529 220.763 227.983 220.747 229.436 220.747C230.889 220.747 232.342 220.763 233.779 220.763C235.215 220.763 236.617 220.797 237.986 220.814C239.355 220.831 240.673 220.865 241.923 220.882C243.174 220.899 244.356 220.932 245.438 220.966C246.536 221 247.533 221.034 248.412 221.068C249.29 221.101 250.068 221.135 250.71 221.152C251.352 221.169 251.842 221.203 252.18 221.22C252.518 221.287 252.704 221.287 252.704 221.287Z" fill="#065F46"/>
<path opacity="0.2" d="M252.704 226.982C252.704 226.982 252.518 226.999 252.18 227.015C251.842 227.032 251.335 227.066 250.71 227.083C250.068 227.117 249.307 227.151 248.412 227.168C247.533 227.201 246.519 227.235 245.438 227.269C244.34 227.303 243.174 227.336 241.923 227.353C240.673 227.37 239.355 227.404 237.986 227.421C236.617 227.438 235.215 227.455 233.779 227.472C232.342 227.472 230.889 227.489 229.436 227.489C227.983 227.489 226.529 227.472 225.093 227.472C223.657 227.472 222.254 227.438 220.886 227.421C219.517 227.404 218.199 227.37 216.949 227.353C215.698 227.336 214.515 227.303 213.434 227.269C212.336 227.235 211.339 227.201 210.46 227.168C209.581 227.134 208.804 227.1 208.162 227.066C207.52 227.032 207.03 227.015 206.692 226.999C206.354 226.982 206.168 226.965 206.168 226.965C206.168 226.965 206.354 226.948 206.692 226.931C207.03 226.914 207.537 226.88 208.162 226.863C208.804 226.83 209.564 226.796 210.46 226.762C211.339 226.728 212.352 226.694 213.434 226.661C214.532 226.627 215.698 226.593 216.949 226.576C218.199 226.542 219.517 226.525 220.886 226.509C222.254 226.492 223.657 226.458 225.093 226.458C226.529 226.458 227.983 226.441 229.436 226.441C230.889 226.441 232.342 226.458 233.779 226.458C235.215 226.458 236.617 226.492 237.986 226.509C239.355 226.525 240.673 226.559 241.923 226.576C243.174 226.593 244.356 226.627 245.438 226.661C246.536 226.694 247.533 226.728 248.412 226.762C249.29 226.796 250.068 226.83 250.71 226.846C251.352 226.863 251.842 226.897 252.18 226.914C252.518 226.965 252.704 226.982 252.704 226.982Z" fill="#065F46"/>
<path d="M256.722 256.924H184.265C181.291 256.924 178.875 254.508 178.875 251.534V243.186C178.875 240.212 181.291 237.796 184.265 237.796H256.722C259.696 237.796 262.112 240.212 262.112 243.186V251.534C262.112 254.508 259.696 256.924 256.722 256.924Z" fill="white"/>
<path opacity="0.2" d="M198.677 248.298C199.181 246.164 197.859 244.025 195.725 243.521C193.59 243.017 191.452 244.339 190.948 246.473C190.444 248.608 191.765 250.746 193.9 251.25C196.034 251.754 198.173 250.433 198.677 248.298Z" fill="#065F46"/>
<path opacity="0.2" d="M252.704 244.471C252.704 244.471 252.518 244.487 252.18 244.504C251.842 244.521 251.335 244.555 250.71 244.572C250.068 244.606 249.307 244.639 248.412 244.656C247.533 244.69 246.519 244.724 245.438 244.758C244.34 244.792 243.174 244.825 241.923 244.842C240.673 244.859 239.355 244.893 237.986 244.91C236.617 244.927 235.215 244.944 233.779 244.961C232.342 244.961 230.889 244.977 229.436 244.977C227.983 244.977 226.529 244.961 225.093 244.961C223.657 244.961 222.254 244.927 220.886 244.91C219.517 244.893 218.199 244.859 216.949 244.842C215.698 244.825 214.515 244.792 213.434 244.758C212.336 244.724 211.339 244.69 210.46 244.656C209.581 244.623 208.804 244.589 208.162 244.555C207.52 244.521 207.03 244.504 206.692 244.487C206.354 244.471 206.168 244.454 206.168 244.454C206.168 244.454 206.354 244.437 206.692 244.42C207.03 244.403 207.537 244.369 208.162 244.352C208.804 244.318 209.564 244.285 210.46 244.251C211.339 244.217 212.352 244.183 213.434 244.149C214.532 244.116 215.698 244.082 216.949 244.065C218.199 244.031 219.517 244.014 220.886 243.997C222.254 243.981 223.657 243.947 225.093 243.947C226.529 243.947 227.983 243.93 229.436 243.93C230.889 243.93 232.342 243.947 233.779 243.947C235.215 243.947 236.617 243.981 237.986 243.997C239.355 244.014 240.673 244.048 241.923 244.065C243.174 244.082 244.356 244.116 245.438 244.149C246.536 244.183 247.533 244.217 248.412 244.251C249.29 244.285 250.068 244.318 250.71 244.335C251.352 244.352 251.842 244.386 252.18 244.403C252.518 244.454 252.704 244.471 252.704 244.471Z" fill="#065F46"/>
<path opacity="0.2" d="M252.704 250.165C252.704 250.165 252.518 250.182 252.18 250.199C251.842 250.216 251.335 250.249 250.71 250.266C250.068 250.3 249.307 250.334 248.412 250.351C247.533 250.385 246.519 250.418 245.438 250.452C244.34 250.486 243.174 250.52 241.923 250.537C240.673 250.554 239.355 250.587 237.986 250.604C236.617 250.621 235.215 250.638 233.779 250.655C232.342 250.655 230.889 250.672 229.436 250.672C227.983 250.672 226.529 250.655 225.093 250.655C223.657 250.655 222.254 250.621 220.886 250.604C219.517 250.587 218.199 250.554 216.949 250.537C215.698 250.52 214.515 250.486 213.434 250.452C212.336 250.418 211.339 250.385 210.46 250.351C209.581 250.317 208.804 250.283 208.162 250.249C207.52 250.216 207.03 250.199 206.692 250.182C206.354 250.165 206.168 250.148 206.168 250.148C206.168 250.148 206.354 250.131 206.692 250.114C207.03 250.097 207.537 250.063 208.162 250.047C208.804 250.013 209.564 249.979 210.46 249.945C211.339 249.911 212.352 249.878 213.434 249.844C214.532 249.81 215.698 249.776 216.949 249.759C218.199 249.726 219.517 249.709 220.886 249.692C222.254 249.675 223.657 249.641 225.093 249.641C226.529 249.641 227.983 249.624 229.436 249.624C230.889 249.624 232.342 249.641 233.779 249.641C235.215 249.641 236.617 249.675 237.986 249.692C239.355 249.709 240.673 249.742 241.923 249.759C243.174 249.776 244.356 249.81 245.438 249.844C246.536 249.878 247.533 249.911 248.412 249.945C249.29 249.979 250.068 250.013 250.71 250.03C251.352 250.047 251.842 250.08 252.18 250.097C252.518 250.148 252.704 250.165 252.704 250.165Z" fill="#065F46"/>
<path d="M239.493 203.934H202.539C201.136 203.934 200.004 202.801 200.004 201.399V183.792C200.004 182.389 201.136 181.257 202.539 181.257H239.493C240.896 181.257 242.028 182.389 242.028 183.792V201.399C242.028 202.801 240.896 203.934 239.493 203.934Z" fill="white"/>
<path d="M221.717 200.453C223.91 200.453 225.688 198.675 225.688 196.482C225.688 194.289 223.91 192.511 221.717 192.511C219.524 192.511 217.746 194.289 217.746 196.482C217.746 198.675 219.524 200.453 221.717 200.453Z" fill="#065F46"/>
<path d="M234.809 187.83C234.809 187.83 234.707 187.847 234.504 187.864C234.302 187.881 234.014 187.915 233.626 187.931C233.254 187.965 232.798 187.999 232.274 188.016C231.75 188.05 231.159 188.083 230.517 188.117C229.875 188.151 229.165 188.185 228.421 188.202C227.678 188.219 226.901 188.252 226.089 188.269C225.278 188.286 224.45 188.303 223.606 188.32C222.761 188.32 221.899 188.337 221.037 188.337C220.175 188.337 219.314 188.337 218.469 188.32C217.624 188.32 216.779 188.286 215.985 188.269C215.174 188.252 214.396 188.219 213.653 188.202C212.909 188.185 212.217 188.151 211.558 188.117C210.915 188.083 210.324 188.05 209.8 188.016C209.276 187.982 208.82 187.948 208.448 187.915C208.077 187.881 207.773 187.864 207.57 187.847C207.367 187.83 207.266 187.813 207.266 187.813C207.266 187.813 207.367 187.796 207.57 187.779C207.773 187.762 208.06 187.729 208.448 187.712C208.82 187.678 209.276 187.644 209.8 187.61C210.324 187.577 210.915 187.543 211.558 187.509C212.2 187.475 212.909 187.441 213.653 187.424C214.396 187.391 215.174 187.374 215.985 187.357C216.796 187.34 217.624 187.323 218.469 187.306C219.314 187.289 220.175 187.289 221.037 187.289C221.899 187.289 222.761 187.306 223.606 187.306C224.45 187.306 225.295 187.34 226.089 187.357C226.901 187.374 227.678 187.408 228.421 187.424C229.165 187.441 229.858 187.475 230.517 187.509C231.159 187.543 231.75 187.577 232.274 187.61C232.798 187.644 233.254 187.678 233.626 187.695C233.998 187.729 234.302 187.746 234.504 187.762C234.707 187.813 234.809 187.83 234.809 187.83Z" fill="#065F46"/>
<path d="M291.716 203.933H254.761C253.359 203.933 252.227 202.801 252.227 201.399V183.792C252.227 182.389 253.359 181.257 254.761 181.257H291.716C293.119 181.257 294.251 182.389 294.251 183.792V201.399C294.251 202.801 293.102 203.933 291.716 203.933Z" fill="white"/>
<path opacity="0.2" d="M273.924 200.453C276.117 200.453 277.895 198.675 277.895 196.482C277.895 194.289 276.117 192.511 273.924 192.511C271.731 192.511 269.953 194.289 269.953 196.482C269.953 198.675 271.731 200.453 273.924 200.453Z" fill="#065F46"/>
<path opacity="0.2" d="M287.016 187.83C287.016 187.83 286.914 187.847 286.711 187.864C286.509 187.881 286.221 187.915 285.833 187.931C285.461 187.965 285.005 187.999 284.481 188.016C283.957 188.05 283.366 188.083 282.724 188.117C282.082 188.151 281.372 188.185 280.628 188.202C279.885 188.219 279.108 188.252 278.297 188.269C277.485 188.286 276.657 188.303 275.813 188.32C274.968 188.32 274.106 188.337 273.244 188.337C272.382 188.337 271.521 188.337 270.676 188.32C269.831 188.32 268.986 188.286 268.192 188.269C267.381 188.252 266.603 188.219 265.86 188.202C265.116 188.185 264.424 188.151 263.765 188.117C263.123 188.083 262.531 188.05 262.007 188.016C261.483 187.982 261.027 187.948 260.655 187.915C260.284 187.881 259.98 187.864 259.777 187.847C259.574 187.83 259.473 187.813 259.473 187.813C259.473 187.813 259.574 187.796 259.777 187.779C259.98 187.762 260.267 187.729 260.655 187.712C261.027 187.678 261.483 187.644 262.007 187.61C262.531 187.577 263.123 187.543 263.765 187.509C264.407 187.475 265.116 187.441 265.86 187.424C266.603 187.391 267.381 187.374 268.192 187.357C269.003 187.34 269.831 187.323 270.676 187.306C271.521 187.289 272.382 187.289 273.244 187.289C274.106 187.289 274.968 187.306 275.813 187.306C276.657 187.306 277.502 187.34 278.297 187.357C279.108 187.374 279.885 187.408 280.628 187.424C281.372 187.441 282.065 187.475 282.724 187.509C283.366 187.543 283.957 187.577 284.481 187.61C285.005 187.644 285.461 187.678 285.833 187.695C286.205 187.729 286.509 187.746 286.711 187.762C286.914 187.813 287.016 187.83 287.016 187.83Z" fill="#065F46"/>
<path d="M187.279 203.933H150.324C148.921 203.933 147.789 202.801 147.789 201.399V183.792C147.789 182.389 148.921 181.257 150.324 181.257H187.279C188.681 181.257 189.813 182.389 189.813 183.792V201.399C189.813 202.801 188.681 203.933 187.279 203.933Z" fill="white"/>
<path opacity="0.2" d="M169.502 200.453C171.695 200.453 173.473 198.675 173.473 196.482C173.473 194.289 171.695 192.511 169.502 192.511C167.309 192.511 165.531 194.289 165.531 196.482C165.531 198.675 167.309 200.453 169.502 200.453Z" fill="#065F46"/>
<path opacity="0.2" d="M182.594 187.83C182.594 187.83 182.492 187.847 182.29 187.864C182.087 187.881 181.8 187.915 181.411 187.931C181.039 187.965 180.583 187.999 180.059 188.016C179.535 188.05 178.944 188.083 178.302 188.117C177.66 188.151 176.95 188.185 176.206 188.202C175.463 188.219 174.686 188.252 173.875 188.269C173.064 188.286 172.236 188.303 171.391 188.32C170.546 188.32 169.684 188.337 168.822 188.337C167.96 188.337 167.099 188.337 166.254 188.32C165.409 188.32 164.564 188.286 163.77 188.269C162.959 188.252 162.182 188.219 161.438 188.202C160.695 188.185 160.002 188.151 159.343 188.117C158.701 188.083 158.109 188.05 157.585 188.016C157.062 187.982 156.605 187.948 156.234 187.915C155.862 187.881 155.558 187.864 155.355 187.847C155.152 187.83 155.051 187.813 155.051 187.813C155.051 187.813 155.152 187.796 155.355 187.779C155.558 187.762 155.845 187.729 156.234 187.712C156.605 187.678 157.062 187.644 157.585 187.61C158.109 187.577 158.701 187.543 159.343 187.509C159.985 187.475 160.695 187.441 161.438 187.424C162.182 187.391 162.959 187.374 163.77 187.357C164.581 187.34 165.409 187.323 166.254 187.306C167.099 187.289 167.96 187.289 168.822 187.289C169.684 187.289 170.546 187.306 171.391 187.306C172.236 187.306 173.08 187.34 173.875 187.357C174.686 187.374 175.463 187.408 176.206 187.424C176.95 187.441 177.643 187.475 178.302 187.509C178.944 187.543 179.535 187.577 180.059 187.61C180.583 187.644 181.039 187.678 181.411 187.695C181.783 187.729 182.087 187.746 182.29 187.762C182.475 187.813 182.594 187.83 182.594 187.83Z" fill="#065F46"/>
<path d="M252.909 132.727C252.909 132.727 252.943 132.761 253.027 132.812C253.095 132.862 253.213 132.947 253.348 133.048C253.619 133.251 253.99 133.555 254.43 133.944C254.869 134.333 255.359 134.789 255.866 135.296C256.12 135.549 256.39 135.82 256.643 136.09C256.762 136.225 256.948 136.377 257.083 136.664C257.15 136.8 257.201 137.002 257.184 137.222V137.239V137.256V137.29V137.307V137.323L257.167 137.374C257.15 137.408 257.15 137.442 257.133 137.459C257.116 137.476 257.116 137.509 257.1 137.526C257.066 137.611 257.015 137.678 256.964 137.746C256.863 137.864 256.762 137.949 256.694 138.016L256.474 138.202C256.322 138.32 256.187 138.439 256.035 138.557C255.748 138.794 255.477 139.03 255.207 139.267C254.666 139.723 254.159 140.162 253.737 140.534C253.298 140.906 252.943 141.227 252.672 141.446C252.419 141.666 252.25 141.784 252.25 141.784C252.25 141.784 252.267 141.734 252.318 141.666C252.368 141.582 252.419 141.463 252.52 141.328C252.689 141.041 252.96 140.618 253.298 140.145C253.652 139.672 254.075 139.148 254.582 138.625C254.835 138.354 255.106 138.101 255.393 137.83C255.528 137.695 255.68 137.56 255.832 137.442L256.052 137.256C256.12 137.205 256.17 137.154 256.187 137.121C256.204 137.104 256.204 137.104 256.204 137.104C256.204 137.104 256.204 137.104 256.204 137.121C256.204 137.121 256.204 137.121 256.204 137.138V137.121V137.104C256.204 137.104 256.204 137.087 256.204 137.121C256.204 137.138 256.204 137.138 256.204 137.121C256.187 137.053 256.086 136.935 255.951 136.783C255.697 136.495 255.461 136.208 255.241 135.938C254.785 135.38 254.379 134.839 254.024 134.383C253.686 133.91 253.416 133.521 253.23 133.234C253.129 133.099 253.061 132.981 253.027 132.896C252.926 132.761 252.909 132.727 252.909 132.727Z" fill="#065F46"/>
<path d="M189.132 132.727C189.132 132.727 189.115 132.761 189.064 132.846C189.014 132.93 188.946 133.048 188.861 133.184C188.676 133.471 188.405 133.876 188.067 134.333C187.729 134.806 187.307 135.33 186.851 135.887C186.614 136.157 186.378 136.445 186.141 136.732C186.006 136.884 185.904 137.002 185.887 137.07C185.871 137.104 185.887 137.087 185.887 137.07C185.887 137.036 185.887 137.053 185.887 137.053V137.07C185.887 137.053 185.887 137.053 185.887 137.053C185.887 137.053 185.887 137.053 185.904 137.07C185.921 137.104 185.972 137.138 186.04 137.205L186.259 137.391C186.411 137.509 186.546 137.644 186.699 137.78C186.986 138.033 187.256 138.303 187.51 138.574C188.017 139.098 188.456 139.621 188.794 140.095C189.149 140.568 189.402 140.973 189.571 141.277C189.656 141.43 189.723 141.548 189.774 141.615C189.825 141.7 189.841 141.734 189.841 141.734C189.841 141.734 189.689 141.615 189.419 141.396C189.166 141.176 188.794 140.872 188.355 140.483C187.915 140.112 187.425 139.672 186.884 139.216C186.614 138.979 186.327 138.76 186.056 138.506C185.921 138.388 185.769 138.27 185.617 138.151L185.397 137.966C185.313 137.898 185.212 137.813 185.127 137.695C185.076 137.628 185.026 137.56 184.992 137.476C184.975 137.459 184.975 137.425 184.958 137.408C184.958 137.391 184.941 137.357 184.924 137.323L184.907 137.273V137.256V137.239V137.205V137.188V137.171C184.874 136.969 184.941 136.766 185.009 136.614C185.144 136.326 185.33 136.174 185.448 136.039C185.702 135.769 185.972 135.498 186.225 135.245C186.732 134.738 187.239 134.282 187.662 133.893C188.101 133.505 188.473 133.2 188.743 132.998C188.878 132.896 188.98 132.812 189.064 132.761C189.098 132.761 189.132 132.727 189.132 132.727Z" fill="#065F46"/>
<path d="M263.499 110.288C263.752 110.355 263.989 110.406 264.242 110.44L264.665 111.42L266.101 111.217L266.236 110.169C266.489 110.068 266.726 109.933 266.963 109.798L267.909 110.271L268.872 109.189L268.314 108.327C268.45 108.091 268.551 107.821 268.635 107.55V107.533L269.616 107.297L269.666 105.844L268.737 105.556C268.669 105.252 268.585 104.965 268.467 104.694L269.041 103.917L268.145 102.768L267.267 103.14C267.03 102.937 266.76 102.768 266.473 102.633L266.422 101.687L265.003 101.383L264.563 102.227C264.242 102.244 263.938 102.278 263.634 102.363L262.975 101.67L261.691 102.363L261.91 103.309C261.691 103.512 261.488 103.731 261.319 103.985L260.339 103.867L259.798 105.218L260.609 105.827C260.575 106.114 260.575 106.401 260.592 106.671L259.73 107.246L260.187 108.632L261.251 108.581C261.403 108.801 261.572 109.02 261.758 109.206L261.454 110.237L262.688 110.997L263.482 110.271C263.465 110.288 263.482 110.288 263.499 110.288ZM263.296 103.731C264.749 102.954 266.557 103.495 267.334 104.948C268.112 106.401 267.571 108.209 266.118 108.986C264.665 109.764 262.857 109.223 262.079 107.77C261.302 106.317 261.843 104.509 263.296 103.731Z" fill="#065F46"/>
<path d="M243.428 170.223C243.428 170.223 243.259 170.24 242.921 170.257C242.6 170.274 242.11 170.308 241.502 170.324C240.893 170.358 240.15 170.392 239.288 170.409C238.426 170.443 237.48 170.477 236.416 170.51C235.368 170.544 234.236 170.578 233.019 170.595C231.819 170.612 230.552 170.646 229.234 170.662C227.916 170.679 226.564 170.696 225.179 170.713C223.793 170.713 222.408 170.73 221.005 170.73C219.603 170.73 218.2 170.713 216.831 170.713C215.446 170.713 214.094 170.679 212.776 170.662C211.458 170.646 210.191 170.612 208.991 170.595C207.791 170.578 206.642 170.544 205.595 170.51C204.547 170.477 203.584 170.443 202.722 170.409C201.86 170.375 201.117 170.341 200.508 170.308C199.9 170.274 199.41 170.257 199.089 170.24C198.768 170.223 198.582 170.206 198.582 170.206C198.582 170.206 198.751 170.189 199.089 170.172C199.41 170.156 199.9 170.122 200.508 170.105C201.117 170.071 201.86 170.037 202.722 170.003C203.584 169.97 204.53 169.936 205.595 169.902C206.642 169.868 207.774 169.834 208.991 169.818C210.191 169.784 211.458 169.767 212.776 169.75C214.094 169.733 215.446 169.699 216.831 169.699C218.217 169.699 219.603 169.682 221.005 169.682C222.408 169.682 223.81 169.699 225.179 169.699C226.564 169.699 227.916 169.733 229.234 169.75C230.552 169.767 231.819 169.801 233.019 169.818C234.219 169.834 235.368 169.868 236.416 169.902C237.463 169.936 238.426 169.97 239.288 170.003C240.15 170.037 240.893 170.071 241.502 170.088C242.11 170.105 242.6 170.139 242.921 170.156C243.259 170.206 243.428 170.223 243.428 170.223Z" fill="#065F46"/>
<path d="M239.12 165.052C239.12 165.052 238.985 165.069 238.715 165.086C238.444 165.103 238.056 165.137 237.566 165.154C237.076 165.187 236.467 165.221 235.775 165.238C235.082 165.272 234.304 165.306 233.46 165.339C232.615 165.373 231.685 165.407 230.722 165.424C229.742 165.441 228.728 165.475 227.664 165.492C226.599 165.508 225.501 165.525 224.403 165.542C223.287 165.542 222.155 165.559 221.023 165.559C219.891 165.559 218.759 165.542 217.644 165.542C216.528 165.542 215.43 165.508 214.382 165.492C213.318 165.475 212.304 165.441 211.324 165.424C210.344 165.407 209.431 165.373 208.586 165.339C207.742 165.306 206.964 165.272 206.272 165.238C205.579 165.204 204.987 165.17 204.48 165.137C203.99 165.103 203.602 165.086 203.331 165.069C203.061 165.052 202.926 165.035 202.926 165.035C202.926 165.035 203.061 165.018 203.331 165.001C203.602 164.985 203.99 164.951 204.48 164.934C204.97 164.9 205.579 164.866 206.272 164.833C206.964 164.799 207.742 164.765 208.586 164.731C209.431 164.697 210.361 164.664 211.324 164.647C212.304 164.613 213.318 164.596 214.382 164.579C215.447 164.562 216.545 164.545 217.644 164.528C218.759 164.528 219.891 164.511 221.023 164.511C222.155 164.511 223.287 164.528 224.403 164.528C225.518 164.528 226.616 164.562 227.664 164.579C228.728 164.596 229.742 164.63 230.722 164.647C231.702 164.664 232.615 164.697 233.46 164.731C234.304 164.765 235.082 164.799 235.775 164.833C236.467 164.866 237.059 164.9 237.566 164.917C238.056 164.951 238.444 164.968 238.715 164.985C238.985 165.035 239.12 165.052 239.12 165.052Z" fill="#065F46"/>
<path d="M183.643 103.207C183.643 103.207 183.593 103.224 183.525 103.241C183.44 103.258 183.322 103.292 183.17 103.309C182.866 103.359 182.427 103.444 181.903 103.495C181.379 103.562 180.771 103.613 180.112 103.647C179.791 103.663 179.453 103.68 179.098 103.697C178.76 103.714 178.405 103.714 178.05 103.714C177.695 103.714 177.357 103.714 177.002 103.697C176.665 103.697 176.327 103.68 175.989 103.663C175.33 103.63 174.721 103.579 174.197 103.511C173.674 103.444 173.234 103.376 172.93 103.326C172.778 103.292 172.66 103.275 172.575 103.258C172.491 103.241 172.457 103.224 172.457 103.224C172.457 103.224 172.508 103.207 172.575 103.19C172.66 103.173 172.778 103.14 172.93 103.123C173.234 103.072 173.674 102.988 174.197 102.937C174.721 102.869 175.33 102.819 175.989 102.785C176.31 102.768 176.648 102.751 177.002 102.751C177.34 102.734 177.695 102.734 178.05 102.734C178.405 102.734 178.743 102.734 179.098 102.751C179.436 102.768 179.774 102.768 180.112 102.802C180.771 102.836 181.379 102.886 181.903 102.954C182.427 103.021 182.866 103.089 183.17 103.14C183.322 103.173 183.44 103.19 183.525 103.207C183.593 103.19 183.643 103.207 183.643 103.207Z" fill="#065F46"/>
<path d="M183.643 106.3C183.643 106.3 183.593 106.317 183.525 106.333C183.44 106.35 183.322 106.384 183.17 106.401C182.866 106.452 182.427 106.536 181.903 106.587C181.379 106.655 180.771 106.705 180.112 106.739C179.791 106.756 179.453 106.773 179.098 106.79C178.76 106.807 178.405 106.807 178.05 106.807C177.695 106.807 177.357 106.807 177.002 106.79C176.665 106.79 176.327 106.773 175.989 106.756C175.33 106.722 174.721 106.671 174.197 106.604C173.674 106.536 173.234 106.469 172.93 106.418C172.778 106.384 172.66 106.367 172.575 106.35C172.491 106.333 172.457 106.317 172.457 106.317C172.457 106.317 172.508 106.3 172.575 106.283C172.66 106.266 172.778 106.232 172.93 106.215C173.234 106.164 173.674 106.08 174.197 106.029C174.721 105.962 175.33 105.911 175.989 105.877C176.31 105.86 176.648 105.843 177.002 105.843C177.34 105.827 177.695 105.827 178.05 105.827C178.405 105.827 178.743 105.827 179.098 105.843C179.436 105.86 179.774 105.86 180.112 105.894C180.771 105.928 181.379 105.979 181.903 106.046C182.427 106.114 182.866 106.181 183.17 106.232C183.322 106.266 183.44 106.283 183.525 106.3C183.593 106.3 183.643 106.3 183.643 106.3Z" fill="#065F46"/>
<path d="M183.643 109.409C183.643 109.409 183.593 109.425 183.525 109.442C183.44 109.459 183.322 109.493 183.17 109.51C182.866 109.561 182.427 109.645 181.903 109.696C181.379 109.763 180.771 109.814 180.112 109.848C179.791 109.865 179.453 109.882 179.098 109.899C178.76 109.915 178.405 109.915 178.05 109.915C177.695 109.915 177.357 109.915 177.002 109.899C176.665 109.899 176.327 109.882 175.989 109.865C175.33 109.831 174.721 109.78 174.197 109.713C173.674 109.645 173.234 109.578 172.93 109.527C172.778 109.493 172.66 109.476 172.575 109.459C172.491 109.442 172.457 109.425 172.457 109.425C172.457 109.425 172.508 109.409 172.575 109.392C172.66 109.375 172.778 109.341 172.93 109.324C173.234 109.273 173.674 109.189 174.197 109.138C174.721 109.071 175.33 109.02 175.989 108.986C176.31 108.969 176.648 108.952 177.002 108.952C177.34 108.935 177.695 108.935 178.05 108.935C178.405 108.935 178.743 108.935 179.098 108.952C179.436 108.969 179.774 108.969 180.112 109.003C180.771 109.037 181.379 109.088 181.903 109.155C182.427 109.223 182.866 109.29 183.17 109.341C183.322 109.375 183.44 109.392 183.525 109.409C183.593 109.392 183.643 109.409 183.643 109.409Z" fill="#065F46"/>
</svg>
