<svg width="18" height="18" viewBox="0 0 18 18" fill="none" xmlns="http://www.w3.org/2000/svg">
<path d="M17.3077 17.9998H0.692308C0.313846 17.9998 0 17.6937 0 17.3246C0 16.9555 0.313846 16.6494 0.692308 16.6494H17.3077C17.6862 16.6494 18 16.9555 18 17.3246C18 17.6937 17.6862 17.9998 17.3077 17.9998Z" fill="#065F46"/>
<path d="M15.4819 1.32684C13.6911 -0.419703 11.9373 -0.464717 10.1003 1.32684L8.98341 2.41619C8.8911 2.50621 8.85418 2.65026 8.8911 2.7763C9.59264 5.16205 11.5496 7.07064 13.9957 7.75486C14.0326 7.76386 14.0696 7.77287 14.1065 7.77287C14.208 7.77287 14.3003 7.73685 14.3742 7.66483L15.4819 6.57549C16.3957 5.69321 16.8388 4.83795 16.8388 3.97367C16.848 3.0824 16.4049 2.21812 15.4819 1.32684Z" fill="#065F46"/>
<path d="M12.3306 8.57417C12.063 8.44813 11.8045 8.32209 11.5553 8.17805C11.3522 8.06101 11.1583 7.93497 10.9645 7.79993C10.8076 7.7009 10.623 7.55685 10.4476 7.41281C10.4291 7.4038 10.3645 7.34979 10.2906 7.27776C9.98603 7.02569 9.6445 6.70158 9.33988 6.34147C9.31219 6.32347 9.26603 6.26045 9.20142 6.17942C9.10911 6.07139 8.95219 5.89133 8.81373 5.68426C8.70296 5.54922 8.57373 5.35116 8.45373 5.1531C8.30603 4.91002 8.1768 4.66695 8.04757 4.41487C8.03647 4.39166 8.02557 4.36852 8.01486 4.34545C7.86328 4.01886 7.4364 3.9216 7.17865 4.17299L1.92757 9.2944C1.80757 9.41143 1.6968 9.6365 1.66911 9.78955L1.17065 13.2376C1.07834 13.8498 1.25373 14.426 1.64142 14.8131C1.97373 15.1282 2.43526 15.2993 2.93373 15.2993C3.04449 15.2993 3.15526 15.2903 3.26603 15.2723L6.81065 14.7861C6.9768 14.7591 7.20757 14.6511 7.31834 14.534L12.5367 9.44455C12.8026 9.18517 12.7046 8.73156 12.3622 8.58746C12.3517 8.58306 12.3412 8.57863 12.3306 8.57417Z" fill="#065F46"/>
</svg>
