<svg width="14" height="8" viewBox="0 0 14 8" fill="none" xmlns="http://www.w3.org/2000/svg">
<path d="M3.79621 0.182215L1.69611 2.0171L0.407262 3.13747C-0.135754 3.61191 -0.135754 4.38359 0.407262 4.85803L3.79621 7.819C4.24109 8.20769 5 7.9276 5 7.38457V4.17781V0.616642C5 0.0678917 4.24109 -0.206483 3.79621 0.182215Z" fill="white"/>
<path d="M10.2038 7.81778L12.3039 5.9829L13.5927 4.86253C14.1358 4.38809 14.1358 3.61641 13.5927 3.14197L10.2038 0.181004C9.75892 -0.207694 9 0.0723968 9 0.615431L9 3.82219L9 7.38336C9 7.93211 9.75891 8.20648 10.2038 7.81778Z" fill="white"/>
</svg>
