<svg width="23" height="23" viewBox="0 0 23 23" fill="none" xmlns="http://www.w3.org/2000/svg">
<path d="M15.7365 20.4125L15.7365 15.065C15.7365 14.6912 16.0335 14.3942 16.4073 14.3942C16.781 14.3942 17.0781 14.6912 17.0781 15.065L17.0781 20.4125C17.0781 20.7862 16.781 21.0833 16.4073 21.0833C16.0335 21.0833 15.7365 20.7862 15.7365 20.4125Z" fill="white"/>
<path d="M15.7365 6.15252L15.7365 2.58752C15.7365 2.21377 16.0335 1.91669 16.4073 1.91669C16.781 1.91669 17.0781 2.21377 17.0781 2.58752L17.0781 6.15252C17.0781 6.52627 16.781 6.82335 16.4073 6.82335C16.0335 6.82335 15.7365 6.51669 15.7365 6.15252Z" fill="white"/>
<path d="M12.6225 9.71748C12.6225 11.8081 14.3173 13.5029 16.4079 13.5029C18.4986 13.5029 20.1934 11.8081 20.1934 9.71748C20.1934 7.62686 18.4986 5.93207 16.4079 5.93207C14.3173 5.93207 12.6225 7.62686 12.6225 9.71748Z" fill="white"/>
<path d="M5.93177 20.4125L5.93177 16.8475C5.93177 16.4738 6.22885 16.1767 6.6026 16.1767C6.97635 16.1767 7.27344 16.4738 7.27344 16.8475L7.27344 20.4125C7.27344 20.7863 6.97635 21.0834 6.6026 21.0834C6.22885 21.0834 5.93177 20.7863 5.93177 20.4125Z" fill="white"/>
<path d="M5.93177 7.93502L5.93177 2.58752C5.93177 2.21377 6.22885 1.91669 6.6026 1.91669C6.97635 1.91669 7.27344 2.21377 7.27344 2.58752L7.27344 7.93502C7.27344 8.30877 6.97635 8.60585 6.6026 8.60585C6.22885 8.60585 5.93177 8.29919 5.93177 7.93502Z" fill="white"/>
<path d="M2.80807 13.2825C2.80807 15.3731 4.50286 17.0679 6.59349 17.0679C8.68412 17.0679 10.3789 15.3731 10.3789 13.2825C10.3789 11.1919 8.68412 9.49707 6.59349 9.49707C4.50286 9.49707 2.80807 11.1919 2.80807 13.2825Z" fill="white"/>
</svg>
