<svg width="21" height="23" viewBox="0 0 21 23" fill="none" xmlns="http://www.w3.org/2000/svg">
<path d="M16.1899 8.15975C17.272 8.15975 18.3099 7.73002 19.075 6.96493C19.8401 6.19965 20.27 5.16207 20.27 4.07987C20.27 2.99798 19.8401 1.96016 19.075 1.19506C18.3099 0.429783 17.2721 0 16.1899 0C15.108 0 14.0702 0.429728 13.3051 1.19506C12.54 1.96016 12.11 2.99792 12.11 4.07987C12.1062 4.35711 12.1314 4.63411 12.185 4.90611L6.92194 8.20401H6.9217C6.15047 7.45506 5.11478 7.041 4.03974 7.05169C2.96471 7.06212 1.93733 7.49659 1.1808 8.26071C0.424259 9.0246 0 10.0562 0 11.1313C0 12.2063 0.424277 13.2379 1.1808 14.0018C1.93733 14.7659 2.96471 15.2004 4.03974 15.2108C5.11478 15.2215 6.15047 14.8074 6.9217 14.0585L12.1849 17.3531C12.1263 17.6268 12.0967 17.9062 12.0965 18.186C12.0936 19.5118 12.7349 20.7561 13.8163 21.5231C14.8975 22.2898 16.2842 22.4836 17.5342 22.0422C18.7843 21.6011 19.7422 20.5799 20.1024 19.3042C20.4629 18.0285 20.1809 16.657 19.3466 15.6271C18.5121 14.5969 17.2293 14.0365 15.9064 14.1242C14.5838 14.2118 13.3859 14.9368 12.6948 16.068L7.73088 12.9605C8.31476 11.811 8.31476 10.4516 7.73088 9.3021L12.6948 6.19132C13.4303 7.41886 14.7588 8.16733 16.1898 8.15974L16.1899 8.15975Z" fill="white"/>
</svg>
