<svg width="26" height="25" viewBox="0 0 26 25" fill="none" xmlns="http://www.w3.org/2000/svg">
<path d="M23.4416 6.02286L15.961 0.984787C13.9221 -0.390369 10.7922 -0.31536 8.83117 1.14731L2.32468 6.03536C1.02597 7.01047 0 9.01069 0 10.5859V19.2118C0 22.3997 2.68831 25 6 25H20C23.3117 25 26 22.4122 26 19.2243V10.7484C26 9.0607 24.8701 6.98547 23.4416 6.02286ZM13.974 19.9994C13.974 20.512 13.5325 20.937 13 20.937C12.4675 20.937 12.026 20.512 12.026 19.9994V16.249C12.026 15.7365 12.4675 15.3114 13 15.3114C13.5325 15.3114 13.974 15.7365 13.974 16.249V19.9994Z" fill="url(#paint0_linear_155_2037)"/>
<defs>
<linearGradient id="paint0_linear_155_2037" x1="13" y1="0" x2="13" y2="25" gradientUnits="userSpaceOnUse">
<stop stop-color="#065F46"/>
<stop offset="1" stop-color="#0D7B5C"/>
</linearGradient>
</defs>
</svg>
