<svg width="19" height="19" viewBox="0 0 19 19" fill="none" xmlns="http://www.w3.org/2000/svg">
<path d="M18.8753 5.56777V1.69083C18.8753 0.486753 18.3652 0 17.0977 0H13.8772C12.6098 0 12.0996 0.486753 12.0996 1.69083V5.55923C12.0996 6.77184 12.6098 7.25006 13.8772 7.25006H17.0977C18.3652 7.25859 18.8753 6.77184 18.8753 5.56777Z" fill="#362B24"/>
<path d="M18.8753 16.4867V13.0362C18.8753 11.6782 18.3652 11.1316 17.0977 11.1316H13.8772C12.6098 11.1316 12.0996 11.6782 12.0996 13.0362V16.4867C12.0996 17.8447 12.6098 18.3913 13.8772 18.3913H17.0977C18.3652 18.3913 18.8753 17.8447 18.8753 16.4867Z" fill="#362B24"/>
<path d="M6.77574 5.56777V1.69083C6.77574 0.486753 6.26557 0 4.9981 0H1.77763C0.510173 0 0 0.486753 0 1.69083V5.55923C0 6.77184 0.510173 7.25006 1.77763 7.25006H4.9981C6.26557 7.25859 6.77574 6.77184 6.77574 5.56777Z" fill="#362B24"/>
<path d="M6.77574 16.4867V13.0362C6.77574 11.6782 6.26557 11.1316 4.9981 11.1316H1.77763C0.510173 11.1316 0 11.6782 0 13.0362V16.4867C0 17.8447 0.510173 18.3913 1.77763 18.3913H4.9981C6.26557 18.3913 6.77574 17.8447 6.77574 16.4867Z" fill="#362B24"/>
</svg>
