<svg width="18" height="18" viewBox="0 0 18 18" fill="none" xmlns="http://www.w3.org/2000/svg">
<path d="M13.5 0H4.5C2.016 0 0 2.007 0 4.482V9.864V10.764C0 13.239 2.016 15.246 4.5 15.246H5.85C6.093 15.246 6.417 15.408 6.57 15.606L7.92 17.397C8.514 18.189 9.486 18.189 10.08 17.397L11.43 15.606C11.601 15.381 11.871 15.246 12.15 15.246H13.5C15.984 15.246 18 13.239 18 10.764V4.482C18 2.007 15.984 0 13.5 0ZM5.4 9C4.896 9 4.5 8.595 4.5 8.1C4.5 7.605 4.905 7.2 5.4 7.2C5.895 7.2 6.3 7.605 6.3 8.1C6.3 8.595 5.904 9 5.4 9ZM9 9C8.496 9 8.1 8.595 8.1 8.1C8.1 7.605 8.505 7.2 9 7.2C9.495 7.2 9.9 7.605 9.9 8.1C9.9 8.595 9.504 9 9 9ZM12.6 9C12.096 9 11.7 8.595 11.7 8.1C11.7 7.605 12.105 7.2 12.6 7.2C13.095 7.2 13.5 7.605 13.5 8.1C13.5 8.595 13.104 9 12.6 9Z" fill="white"/>
</svg>
