<svg width="15" height="19" viewBox="0 0 15 19" fill="none" xmlns="http://www.w3.org/2000/svg">
<path d="M13.9775 11.6158L13.0475 10.072C12.8522 9.72789 12.6755 9.07688 12.6755 8.69558V6.34266C12.6755 4.15714 11.392 2.26922 9.54132 1.38571C9.05772 0.530105 8.16491 0 7.1419 0C6.12819 0 5.21678 0.548705 4.73318 1.41361C2.91966 2.31572 1.66415 4.18504 1.66415 6.34266V8.69558C1.66415 9.07688 1.48745 9.72789 1.29215 10.0627L0.352841 11.6158C-0.0191618 12.2389 -0.102863 12.9271 0.129639 13.5595C0.352841 14.1826 0.882946 14.6662 1.57115 14.8987C3.37537 15.5125 5.27258 15.8101 7.1698 15.8101C9.06702 15.8101 10.9642 15.5125 12.7685 14.908C13.4195 14.6941 13.9217 14.2012 14.1635 13.5595C14.4053 12.9178 14.3402 12.211 13.9775 11.6158Z" fill="white"/>
<path d="M9.78189 16.7494C9.39129 17.8283 8.35898 18.6002 7.14997 18.6002C6.41526 18.6002 5.68985 18.3026 5.17835 17.7725C4.88075 17.4934 4.65754 17.1214 4.52734 16.7401C4.64824 16.7587 4.76915 16.768 4.89935 16.7866C5.11325 16.8145 5.33645 16.8424 5.55965 16.861C6.08976 16.9075 6.62916 16.9354 7.16857 16.9354C7.69867 16.9354 8.22878 16.9075 8.74958 16.861C8.94488 16.8424 9.14018 16.8331 9.32619 16.8052C9.47499 16.7866 9.62379 16.768 9.78189 16.7494Z" fill="white"/>
</svg>
