<svg width="16" height="17" viewBox="0 0 16 17" fill="none" xmlns="http://www.w3.org/2000/svg">
<path d="M13.9008 8.10029C13.398 7.97279 12.8071 7.90479 12.1014 7.90479C11.1224 7.90479 10.7607 8.13429 10.258 8.49979C10.2315 8.51679 10.2051 8.54229 10.1786 8.56779L9.34068 9.4263C8.63506 10.1403 7.36494 10.1488 6.65932 9.4178L5.82139 8.56779C5.79493 8.54229 5.76847 8.51679 5.74201 8.49979C5.23925 8.13429 4.87762 7.90479 3.89857 7.90479C3.19294 7.90479 2.60198 7.97279 2.09923 8.10029C-2.10292e-07 8.64429 0 10.2508 0 11.6618V12.4523C0 14.5859 -4.20584e-07 16.9999 4.71885 16.9999H11.2811C14.4123 16.9999 16 15.4699 16 12.4523V11.6618C16 10.2508 16 8.64429 13.9008 8.10029ZM10.0551 13.9399H5.94487C5.6097 13.9399 5.33627 13.6764 5.33627 13.3449C5.33627 13.0134 5.6097 12.7498 5.94487 12.7498H10.0551C10.3903 12.7498 10.6637 13.0134 10.6637 13.3449C10.6637 13.6764 10.3903 13.9399 10.0551 13.9399Z" fill="white"/>
<path d="M8.59207 0.569507C8.59207 0.255003 8.32747 0 8.00112 0C7.67476 0 7.41016 0.255003 7.41016 0.569507V1.70002H8.6009V0.569507H8.59207Z" fill="white"/>
<path d="M14.3575 5.45724V6.90226C14.3222 6.88526 14.2781 6.87676 14.2429 6.86826H14.234C13.6078 6.70676 12.911 6.63026 12.0995 6.63026C10.7412 6.63026 10.0973 7.01276 9.51519 7.43777C9.3917 7.52277 9.3035 7.60777 9.2153 7.69277L8.37737 8.55128C8.28917 8.63628 8.14804 8.68728 7.9981 8.68728C7.92754 8.68728 7.75113 8.67878 7.61883 8.54278L6.75444 7.66727C6.66624 7.57377 6.56039 7.49727 6.53393 7.48027C5.89887 7.01276 5.25499 6.63026 3.89667 6.63026C3.0852 6.63026 2.3884 6.70676 1.75334 6.86826C1.71805 6.87676 1.67395 6.88526 1.63867 6.90226V5.45724C1.63867 3.69772 1.63867 1.7002 5.53724 1.7002H7.40714V4.63273L6.83382 4.08023C6.59567 3.85072 6.22522 3.85072 5.98707 4.08023C5.75775 4.30123 5.75775 4.66673 5.98707 4.88774L7.57473 6.41776C7.58355 6.42626 7.59237 6.42625 7.59237 6.43475C7.64529 6.47726 7.70703 6.51976 7.76877 6.54526C7.84815 6.57076 7.91872 6.58776 7.9981 6.58776C8.07748 6.58776 8.14804 6.57076 8.22743 6.54526C8.29799 6.51976 8.35973 6.47726 8.42147 6.41776L10.0091 4.88774C10.2385 4.66673 10.2385 4.30123 10.0091 4.08023C9.77098 3.85072 9.40052 3.85072 9.16238 4.08023L8.58906 4.63273V1.7002H10.459C14.3575 1.7002 14.3575 3.69772 14.3575 5.45724Z" fill="white"/>
</svg>
