<svg width="22" height="26" viewBox="0 0 22 26" fill="none" xmlns="http://www.w3.org/2000/svg">
<path fill-rule="evenodd" clip-rule="evenodd" d="M6.05518 25.1187L6.49111 22.2567L5.52001 22.2333H0.882812L4.1055 1.11328C4.11554 1.04933 4.148 0.98996 4.19539 0.947726C4.24303 0.905492 4.30374 0.882324 4.36725 0.882324H12.1863C14.7823 0.882324 16.5736 1.44053 17.5088 2.54247C17.9473 3.05941 18.2265 3.59976 18.3617 4.19417C18.5035 4.81803 18.5058 5.56327 18.3676 6.47238L18.3575 6.53851V7.12109L18.796 7.37788C19.1652 7.58036 19.4587 7.81204 19.6838 8.07727C20.0588 8.51939 20.3014 9.08122 20.4039 9.74707C20.5099 10.432 20.4748 11.2472 20.3014 12.1701C20.1013 13.2315 19.7779 14.156 19.341 14.9124C18.9394 15.6094 18.4276 16.1876 17.8198 16.6355C17.2395 17.0612 16.5503 17.3844 15.7709 17.5912C15.0155 17.7944 14.1544 17.897 13.2099 17.897H12.6014C12.1664 17.897 11.7438 18.0589 11.412 18.3492C11.0793 18.6456 10.8593 19.0506 10.7918 19.4934L10.7458 19.7512L9.97554 24.7958L9.94075 24.9809C9.93141 25.0395 9.91553 25.0688 9.89219 25.0885C9.8714 25.1066 9.84152 25.1187 9.81233 25.1187H6.05518Z" fill="#28356A"/>
<path fill-rule="evenodd" clip-rule="evenodd" d="M19.2142 6.60596C19.191 6.76017 19.1642 6.91776 19.1343 7.0797C18.1032 12.5517 14.5753 14.4421 10.0698 14.4421H7.77574C7.22469 14.4421 6.76027 14.8555 6.67458 15.4174L5.16737 25.2989C5.11157 25.6679 5.38662 26.0002 5.74667 26.0002H9.81554C10.2972 26.0002 10.7066 25.6384 10.7824 25.1473L10.8224 24.9337L11.5885 19.9089L11.6377 19.6333C11.7127 19.1404 12.1229 18.7784 12.6046 18.7784H13.2131C17.1552 18.7784 20.2413 17.1243 21.1433 12.3372C21.5199 10.3375 21.3249 8.66769 20.3279 7.49335C20.0263 7.13931 19.652 6.84536 19.2142 6.60596Z" fill="#298FC2"/>
<path fill-rule="evenodd" clip-rule="evenodd" d="M18.1329 6.16133C17.9753 6.11378 17.8128 6.07082 17.6461 6.03197C17.4785 5.99408 17.3068 5.96053 17.1301 5.93109C16.5116 5.8278 15.8337 5.77881 15.1078 5.77881H8.97927C8.82819 5.77881 8.68483 5.81404 8.55664 5.87776C8.27388 6.01821 8.06397 6.29478 8.01307 6.63338L6.70923 15.1685L6.67188 15.4173C6.75757 14.8554 7.22199 14.442 7.77303 14.442H10.0671C14.5726 14.442 18.1005 12.5507 19.1316 7.07961C19.1624 6.91767 19.1883 6.76008 19.2115 6.60587C18.9506 6.46275 18.6681 6.3404 18.3639 6.23614C18.2887 6.21032 18.2112 6.18546 18.1329 6.16133Z" fill="#22284F"/>
<path fill-rule="evenodd" clip-rule="evenodd" d="M8.01415 6.63335C8.06505 6.29476 8.27496 6.01819 8.55773 5.8787C8.68685 5.81474 8.82928 5.77951 8.98035 5.77951H15.1089C15.8348 5.77951 16.5126 5.82874 17.1312 5.93203C17.3079 5.96123 17.4795 5.99502 17.6472 6.03291C17.8139 6.07152 17.9764 6.11472 18.134 6.16202C18.2122 6.18616 18.2898 6.21126 18.3657 6.23611C18.6699 6.34037 18.9527 6.46369 19.2135 6.60584C19.5203 4.58369 19.2109 3.20687 18.1532 1.96013C16.9869 0.587411 14.8822 0 12.1888 0H4.36954C3.81943 0 3.3501 0.413408 3.26511 0.976203L0.00833485 22.3134C-0.0558761 22.7355 0.259108 23.1163 0.670991 23.1163H5.49825L8.01415 6.63335Z" fill="#28356A"/>
</svg>
