<svg width="15" height="15" viewBox="0 0 15 15" fill="none" xmlns="http://www.w3.org/2000/svg">
<path opacity="0.5" d="M13.4183 14.3926C13.4183 14.5993 13.256 14.7617 13.0493 14.7617H0.369041C0.162378 14.7617 0 14.5993 0 14.3926C0 11.337 3.01137 8.85699 6.70917 8.85699C7.46939 8.85699 8.20749 8.96031 8.88652 9.15959C8.45105 9.67625 8.18534 10.3479 8.18534 11.0712C8.18534 11.6248 8.34032 12.1488 8.61341 12.5917C8.76103 12.8426 8.95294 13.0714 9.17436 13.2633C9.69102 13.7357 10.3774 14.0236 11.1377 14.0236C11.9643 14.0236 12.7098 13.684 13.2412 13.1379C13.3593 13.5364 13.4183 13.9571 13.4183 14.3926Z" fill="white"/>
<path d="M13.33 9.10056C12.7986 8.49533 12.0088 8.1189 11.1379 8.1189C10.3112 8.1189 9.55838 8.45843 9.01958 9.01199C8.50293 9.54341 8.18555 10.2741 8.18555 11.0712C8.18555 11.6248 8.34053 12.1488 8.61362 12.5917C8.76124 12.8426 8.95315 13.0714 9.17457 13.2633C9.69123 13.7357 10.3777 14.0236 11.1379 14.0236C12.2155 14.0236 13.1529 13.4479 13.6621 12.5917C13.8171 12.3407 13.9352 12.0529 14.0016 11.7576C14.0607 11.5362 14.0902 11.3074 14.0902 11.0712C14.0902 10.3184 13.8024 9.6246 13.33 9.10056ZM12.245 11.61H11.6914V12.1857C11.6914 12.4884 11.4405 12.7393 11.1379 12.7393C10.8353 12.7393 10.5843 12.4884 10.5843 12.1857V11.61H10.0308C9.72814 11.61 9.47719 11.3591 9.47719 11.0565C9.47719 10.7538 9.72814 10.5029 10.0308 10.5029H10.5843V9.97888C10.5843 9.67627 10.8353 9.42532 11.1379 9.42532C11.4405 9.42532 11.6914 9.67627 11.6914 9.97888V10.5029H12.245C12.5476 10.5029 12.7986 10.7538 12.7986 11.0565C12.7986 11.3591 12.5476 11.61 12.245 11.61Z" fill="white"/>
<path d="M6.70994 7.38083C8.7481 7.38083 10.4004 5.72857 10.4004 3.69041C10.4004 1.65225 8.7481 0 6.70994 0C4.67179 0 3.01953 1.65225 3.01953 3.69041C3.01953 5.72857 4.67179 7.38083 6.70994 7.38083Z" fill="white"/>
</svg>
