<svg width="15" height="15" viewBox="0 0 15 15" fill="none" xmlns="http://www.w3.org/2000/svg">
<path d="M13.4443 9.24751C12.9083 8.63251 12.1119 8.25 11.2335 8.25C10.3997 8.25 9.64045 8.59502 9.09704 9.15752C8.57596 9.69751 8.25586 10.44 8.25586 11.25C8.25586 11.8125 8.4122 12.345 8.68762 12.795C8.83651 13.05 9.03006 13.2825 9.25338 13.4775C9.77446 13.9575 10.4667 14.25 11.2335 14.25C12.3203 14.25 13.2657 13.665 13.7793 12.795C13.9356 12.54 14.0548 12.2475 14.1217 11.9475C14.1813 11.7225 14.2111 11.49 14.2111 11.25C14.2111 10.485 13.9207 9.78001 13.4443 9.24751ZM12.3501 11.7975H10.1243C9.81911 11.7975 9.56601 11.5425 9.56601 11.235C9.56601 10.9275 9.81911 10.6725 10.1243 10.6725H12.3501C12.6553 10.6725 12.9084 10.9275 12.9084 11.235C12.9084 11.5425 12.6553 11.7975 12.3501 11.7975Z" fill="white"/>
<path opacity="0.4" d="M13.5333 14.625C13.5333 14.835 13.3695 15 13.1611 15H0.372201C0.163768 15 0 14.835 0 14.625C0 11.52 3.03718 9 6.76663 9C7.53336 9 8.27777 9.10498 8.96262 9.30748C8.52343 9.83248 8.25543 10.515 8.25543 11.25C8.25543 11.8125 8.41177 12.345 8.6872 12.795C8.83608 13.05 9.02963 13.2825 9.25295 13.4775C9.77403 13.9575 10.4663 14.25 11.233 14.25C12.0668 14.25 12.8186 13.905 13.3546 13.35C13.4737 13.755 13.5333 14.1825 13.5333 14.625Z" fill="white"/>
<path d="M6.76498 7.49999C8.82058 7.49999 10.487 5.82106 10.487 3.75C10.487 1.67893 8.82058 0 6.76498 0C4.70937 0 3.04297 1.67893 3.04297 3.75C3.04297 5.82106 4.70937 7.49999 6.76498 7.49999Z" fill="white"/>
</svg>
