<svg width="20" height="20" viewBox="0 0 20 20" fill="none" xmlns="http://www.w3.org/2000/svg">
<path d="M5.9682 11.5393C5.79083 11.1972 5.36975 11.0637 5.02769 11.2411C4.68562 11.4185 4.55211 11.8396 4.72947 12.1816C5.0993 12.8948 5.78783 13.6763 6.67748 14.2813C7.57347 14.8905 8.71545 15.3488 10 15.3488C11.2845 15.3488 12.4265 14.8905 13.3225 14.2813C14.2122 13.6763 14.9007 12.8948 15.2705 12.1816C15.4479 11.8396 15.3144 11.4185 14.9723 11.2411C14.6302 11.0637 14.2092 11.1972 14.0318 11.5393C13.7815 12.0221 13.2607 12.6359 12.5379 13.1274C11.8215 13.6145 10.948 13.9535 10 13.9535C9.05199 13.9535 8.17847 13.6145 7.46206 13.1274C6.7393 12.6359 6.21853 12.0221 5.9682 11.5393Z" fill="#362B24"/>
<path fill-rule="evenodd" clip-rule="evenodd" d="M10 0C4.47715 0 0 4.47715 0 10C0 15.5228 4.47715 20 10 20C15.5228 20 20 15.5228 20 10C20 4.47715 15.5228 0 10 0ZM1.39535 10C1.39535 5.24778 5.24778 1.39535 10 1.39535C14.7522 1.39535 18.6047 5.24778 18.6047 10C18.6047 14.7522 14.7522 18.6047 10 18.6047C5.24778 18.6047 1.39535 14.7522 1.39535 10Z" fill="#362B24"/>
<path d="M8.13953 6.27907C8.13953 6.79282 7.72306 7.2093 7.2093 7.2093C6.69555 7.2093 6.27907 6.79282 6.27907 6.27907C6.27907 5.76532 6.69555 5.34884 7.2093 5.34884C7.72306 5.34884 8.13953 5.76532 8.13953 6.27907Z" fill="#362B24"/>
<path d="M13.7209 6.27907C13.7209 6.79282 13.3045 7.2093 12.7907 7.2093C12.2769 7.2093 11.8605 6.79282 11.8605 6.27907C11.8605 5.76532 12.2769 5.34884 12.7907 5.34884C13.3045 5.34884 13.7209 5.76532 13.7209 6.27907Z" fill="#362B24"/>
</svg>
