<svg width="16" height="18" viewBox="0 0 16 18" fill="none" xmlns="http://www.w3.org/2000/svg">
<path d="M15.4326 3.33054C14.1126 3.19665 12.7927 3.09623 11.4645 3.02092V3.01255L11.2841 1.92469C11.1612 1.15481 10.9808 0 9.06233 0H6.91431C5.00405 0 4.82368 1.1046 4.6925 1.91632L4.52033 2.98745C3.75787 3.03766 2.9954 3.08787 2.23294 3.16318L0.560433 3.33054C0.216094 3.36402 -0.0298628 3.67364 0.00293141 4.01674C0.0357256 4.35983 0.330873 4.61088 0.675213 4.57741L2.34772 4.41004C6.64376 3.9749 10.9726 4.14226 15.3178 4.58577C15.3424 4.58577 15.3588 4.58577 15.3834 4.58577C15.695 4.58577 15.9655 4.3431 15.9983 4.01674C16.0229 3.67364 15.7769 3.36402 15.4326 3.33054Z" fill="#EA001B"/>
<path d="M13.9246 5.76569C13.7278 5.55649 13.4573 5.43933 13.1785 5.43933H2.81553C2.53678 5.43933 2.25803 5.55649 2.06947 5.76569C1.8809 5.9749 1.77432 6.25941 1.79071 6.5523L2.29903 15.1381C2.38921 16.41 2.50399 18 5.36528 18H10.6288C13.49 18 13.6048 16.4184 13.695 15.1381L14.2033 6.56067C14.2197 6.25941 14.1131 5.9749 13.9246 5.76569ZM9.35798 13.8075H6.62786C6.29172 13.8075 6.01297 13.523 6.01297 13.1799C6.01297 12.8368 6.29172 12.5523 6.62786 12.5523H9.35798C9.69412 12.5523 9.97287 12.8368 9.97287 13.1799C9.97287 13.523 9.69412 13.8075 9.35798 13.8075ZM10.0467 10.4603H5.94738C5.61124 10.4603 5.33249 10.1757 5.33249 9.83264C5.33249 9.48954 5.61124 9.20502 5.94738 9.20502H10.0467C10.3828 9.20502 10.6615 9.48954 10.6615 9.83264C10.6615 10.1757 10.3828 10.4603 10.0467 10.4603Z" fill="#EA001B"/>
</svg>
