<svg width="42" height="14" viewBox="0 0 42 14" fill="none" xmlns="http://www.w3.org/2000/svg">
<path d="M41.3525 13.1278H38.2391C38.1256 12.5813 38.0029 12.0468 37.9067 11.5079C37.8666 11.2811 37.7947 11.1972 37.5448 11.2002C36.2963 11.2161 35.0462 11.2123 33.7992 11.2002C33.7257 11.1889 33.6506 11.207 33.5904 11.2506C33.5301 11.2942 33.4895 11.3598 33.4774 11.4331C33.3056 11.9471 33.1178 12.455 32.9247 12.9622C32.899 13.031 32.8119 13.1255 32.7529 13.1255C31.6277 13.1353 30.5026 13.1331 29.3457 13.1331C29.5569 12.6259 29.7568 12.1413 29.959 11.6583C31.4097 8.20234 32.8609 4.74637 34.3126 1.2904C34.4186 0.95919 34.6344 0.673905 34.9245 0.481543C35.2146 0.28918 35.5617 0.201215 35.9086 0.232139H38.6419C38.732 0.653175 38.8229 1.06892 38.91 1.48466C39.6242 4.89982 40.3382 8.31497 41.0519 11.7301C41.1435 12.1678 41.2518 12.6017 41.3548 13.0371L41.3525 13.1278ZM37.2783 8.54477L36.294 3.82342L36.2539 3.81586L34.5382 8.54477H37.2783Z" fill="#065F46"/>
<path d="M27.792 0.000755484C28.2032 0.0763454 28.6166 0.139842 29.0239 0.232817C29.3949 0.318234 29.7584 0.437665 30.1528 0.549538L29.5698 3.27078C29.0497 3.1196 28.5522 2.94272 28.0404 2.83009C27.3473 2.6497 26.6203 2.64347 25.9242 2.81195C25.6317 2.89484 25.3602 3.03887 25.1277 3.23449C25.0386 3.30049 24.9658 3.38598 24.915 3.4844C24.8642 3.58282 24.8366 3.69156 24.8344 3.80228C24.8322 3.91299 24.8555 4.02274 24.9024 4.12309C24.9492 4.22344 25.0186 4.31174 25.1049 4.38119C25.3666 4.61508 25.6524 4.82058 25.9575 4.99423C26.6389 5.40317 27.3537 5.75844 28.0154 6.19535C28.4073 6.42604 28.7424 6.74135 28.9963 7.11818C29.2502 7.49501 29.4164 7.9238 29.4827 8.3731C29.6104 9.14203 29.5034 9.93154 29.1755 10.6389C28.8477 11.3463 28.3142 11.9388 27.6444 12.3393C26.7524 12.9001 25.7338 13.2287 24.6817 13.2948C23.2214 13.4324 21.7484 13.2656 20.3561 12.8049C20.2615 12.7739 20.1699 12.7354 20.0775 12.6976C20.0451 12.6807 20.014 12.6615 19.9844 12.6402L20.5901 9.82216C20.8301 9.92647 21.0557 10.0315 21.2859 10.1245C22.3582 10.5941 23.5442 10.7417 24.6991 10.5493C25.0132 10.4865 25.3117 10.3622 25.5774 10.1835C25.7076 10.1069 25.8172 9.99982 25.8967 9.87145C25.9761 9.74308 26.023 9.59731 26.0333 9.44677C26.0436 9.29622 26.017 9.14544 25.9557 9.00749C25.8945 8.86953 25.8005 8.74856 25.6819 8.65505C25.3273 8.37798 24.9505 8.13048 24.5553 7.91502C23.9556 7.54992 23.3181 7.23925 22.7502 6.83106C22.3819 6.59232 22.07 6.27646 21.8361 5.90538C21.6022 5.5343 21.4519 5.11687 21.3957 4.68204C21.3147 4.04042 21.4047 3.38882 21.6566 2.79303C21.9085 2.19725 22.3134 1.67837 22.8305 1.28881C23.7562 0.572326 24.871 0.140511 26.0385 0.0461091C26.1037 0.0345261 26.1682 0.0191304 26.2316 0L27.792 0.000755484Z" fill="#065F46"/>
<path d="M15.6858 0.241101C15.5109 0.661381 15.3451 1.06201 15.1777 1.46112C13.5756 5.2769 11.975 9.09344 10.3759 12.9107C10.3548 12.9851 10.3073 13.0492 10.2421 13.091C10.177 13.1327 10.0988 13.1493 10.0223 13.1375C9.01079 13.1292 8 13.1262 6.98845 13.1375C6.77418 13.1375 6.70452 13.0619 6.65455 12.8737C5.79746 9.53867 4.92523 6.20666 4.08026 2.86861C4.02467 2.58456 3.89965 2.31863 3.7163 2.09444C3.53296 1.87026 3.29698 1.69477 3.02934 1.58358C2.09288 1.18545 1.12198 0.87348 0.128713 0.651555L0 0.619808C0.00530002 0.232787 0.00529963 0.232786 0.374029 0.232786H5.68313C6.0669 0.212854 6.44427 0.336888 6.74113 0.580527C7.03798 0.824166 7.23287 1.16981 7.28752 1.54956C7.73676 3.89789 8.18095 6.24698 8.6201 8.59682C8.63978 8.69962 8.66174 8.80166 8.69127 8.9468C8.73746 8.86063 8.76699 8.81225 8.79046 8.75933C9.88983 5.98367 10.9872 3.20725 12.0825 0.430076C12.0981 0.365498 12.1372 0.309029 12.1922 0.271705C12.2472 0.234382 12.3142 0.218888 12.3801 0.228252C13.4068 0.236567 14.4335 0.232031 15.4602 0.232786C15.5253 0.231275 15.5919 0.236566 15.6858 0.241101Z" fill="#065F46"/>
<path d="M14.3457 13.1353L17.1085 0.244141H20.4619C20.3226 0.897994 20.1856 1.53975 20.0485 2.18075C19.2914 5.72743 18.5342 9.27437 17.7771 12.8216C17.7248 13.068 17.6378 13.1466 17.3811 13.1413C16.4619 13.1239 15.5428 13.1345 14.6236 13.1345L14.3457 13.1353Z" fill="#065F46"/>
</svg>
